<svg viewBox="0 0 1560 760" width="1560" height="760" xmlns="http://www.w3.org/2000/svg" aria-hidden="true">
<g stroke="rgba(160,195,230,1)" stroke-width="1.5" stroke-linecap="round" stroke-linejoin="round" opacity=".07" fill="none">
<path d="M16 6.9l10.1-.1 13.8-1.1 11.8 2.2 8.9 7.9-.4 10.2.3 9.9 1.1 12-4.8 8.6-10.5 4.2-13.7 1.6-11.5-2.1-11-3.3-3-12.9-1-9.7 1.5-10.3 1-11.5 7.2-6 3.8-3.1"/>
<path d="M82.9 6.7l10.5.8 10.9.3 12.1-1.7 9.2 7.1 4 9.8 0 11 .6 10.5-4.4 10.9-9.5 6-11.2.7-10.1-1-11.6 1.1-8.3-9.4.6-11.9-1.9-13.9 1.9-10 5.2-9.3 1.9-1.9 3.5-3.5"/>
<path d="M150.3 7l12.2-.8 8.9.8 12.5.6 8.9 2.8 4.5 9.2-.3 11.5 1.2 13.1-3.8 10.1-6.9 7.1-13.1-.3-9.1 1.1-13.7.2-7.5-9-2-11.8.3-12 .2-10.6 4.2-7 4.3-5.8 2.8-3.6"/>
<path d="M219.9 6.2l9.4.7 11.9-.8 11.4-.4 10.1 7 3.2 11-.4 9.9-.9 12.2-4 12.1-8.9 3.4-11.4-.1-12.5-.2-8.7-.5-7.3-9.9-.6-11.3-1.5-11.3 1-11.9 9-8.4 4.1-3.9"/>
<path d="M286.6 5.7l11.9 1.5 12.8-1.6 9.5.6 9.1 6.1 3.6 10.7.8 9.7-.7 10.4-.3 10.2-7.5 6.3-11.6 2.1-10.6-.2-13.6-.5-9.1-7.5-3.2-11.3.7-10.2.8-11.5 4.7-11.1 3-1.8 6.6-3.9"/>
<path d="M355.9 7.6l11.1-.9 9.3.3 14.4-.5 9.7 7.5.4 9.6 1.4 12.6-1.6 12.4-5 9.2-12.3 2.9-11.7.4-12.6.5-8.4-5.1-4.2-9.9 1.6-10.6-.3-10.5 1.2-11.9 5.8-7.1 4.1-5"/>
<path d="M422.8 7.9l11.4.1 10.7-1.3 13.1-.4 9.5 8 1.9 9.9.7 10.5-1.6 11.4-3.7 9.1-9.8 6.3-10.3.4-12.4-.7-8.5-1.3-9.5-7.4 1.2-9.6-.4-12 .5-9.3 5.3-12 2.3-2.2 5.1-4.9"/>
<path d="M492.5 7.3l9.6.4 12 .1 12.7-.7 9.1 7.7 1.8 11.9-1.2 12.6 1.1 9.8-6.1 7.9-10.4 5-9.1-1.4-14.3 1.1-9.8-2.6-5.2-7.4-1-13.6 1-10.4.5-9.3 5.6-8.2 3.3-4.3 2.6-3.5"/>
<path d="M558.9 7.6l11.8-.4 12.8.6 11.2-1.1 8.7 6.8 1.5 11.7-.1 10.4 1.4 12.7-5.6 9.7-11.4 2.2-13 1.8-11.6-.6-8.8-4.1-6.1-9.5.4-13.2 1.6-10.7 1.3-11.9 7.5-4.5 4.3-2.6"/>
<path d="M627.5 6.9l10.5.2 12.7-.9 13.4 1.2 8.4 7.4.9 11.1-.3 10.3.1 12.1-5.3 10.9-8.9 1.6-13.2-.5-10.6.4-10.5-2.5-5.2-8.9.2-8.8-.4-14.1.7-9 5.8-8.6 1.5-2.2 3.6-5"/>
<path d="M696.6 6l11.3 1.5 10.3-.9 13.6-.8 7.4 8.8 1.8 11.5-.5 11.7 1.6 12-6.1 7.9-12.5 3.9-9.1.7-11.6-1.5-9.8-2.2-5.3-10-1.1-13.6-.5-13 2.5-10 6.9-4.5 4.8-3.2"/>
<path d="M763.3 7.9l10.8-.4 12.6-.2 9.4-.1 10 5.6 2.7 9.4.5 11.2-.8 10.3-1.6 9.9-6.8 8.7-12.5-2-12.6.5-11-.9-8.6-7 .1-12 0-12.1-.6-10.1 6.5-10.1 2.5-.7 6.1-1.8"/>
<path d="M831 6.1l12.5-.1 12.5 1.3 9.9-.6 8.4 6.1 3.7 13.1-1 9.1 0 12.7-4.3 11.1-11.1 3.3-12.8-.6-12.5.8-8.8-3.9-3.6-10-1.2-9.3.6-11.4.6-11.1 8.2-11 2.6-3.4"/>
<path d="M898.8 6.1l10.4.6 13.5.3 11.5-.9 7.6 5.2 3.8 9.8.2 11.1.2 10.4-1.1 12-11 7.1-11.5-1.1-12.8.1-11.4-.8-6-8-.4-10.6 0-11.6-.7-11.4 6-9 3.5-1.5 5.8-2.6"/>
<path d="M967.4 6.8l13.2-.8 10.6.1 10.8.8 7 5.8 4.7 8.7-.7 13.9-.6 9.3-2.1 10.3-10.6 5.1-11.3 1.3-10.9-.9-13.2-1.4-5.2-8.9-.9-11.6 1.7-13.2-.3-10.5 8.1-6.8 3-2.6"/>
<path d="M1035.7 7l12.1.8 11.1-1.3 13.7.6 8 7.2-.3 11.2-.1 12.3.4 10.7-3.8 9.5-11.7 2.9-12.9.5-11.4.8-9.8-5.5-5-9.9 1.2-10.8.6-9.5.4-11.3 7.6-8 2.8-2.9"/>
<path d="M1103.8 5.7l11.3.7 13.4 1.5 11.2-.7 8.1 6.5 2.2 12.5.4 13.3-1.3 12-6.7 9-9.2.9-12.3 1-11.8 0-8.8-4.9-6.4-7.6 1-12.3-.3-9 0-13.5 6.3-6.1 1.8-3.3 2.8-4.9"/>
<path d="M1171.6 7l10.5-.4 13.1.6 12.2.7 10.1 7.8.1 9.9-.1 11.3.5 10.9-3.7 7.8-9.7 5.1-11.1-.3-12.5-.2-11.7-1.7-6.2-9.4-.5-10.5-.2-11.7-.5-12.4 9.8-6.3 6.5-4.2"/>
<path d="M1239.9 7.2l10.5-.8 10.1 1.2 14.1.2 7.2 3.5 3.7 10.8-1.1 12.6 1.9 12.1-5.7 10.7-10.6 3.2-13.8.5-11.3 1.2-10.4-6-4.2-7 .6-12.4.8-12.1 1.5-11.8 5.1-6.5 4.8-6.1"/>
<path d="M1308.5 5.9l8 1.4 10.7-.6 14.5 1.2 8.3 6.2 2.9 8.2-.2 12.3.5 10.3-1.7 11.2-11.8 5.5-12.3-1.6-10.1.6-10.6.6-8.1-8.9 0-10.2.3-11.9-.4-12.8 6.2-9.9 4-1.5 7.2-2.7"/>
<path d="M1375.9 6.8l12.8.9 10.7-.1 11.6-.4 9.1 6.5 1.4 10.6.4 11.9 0 11.5-5.7 9.5-11 4-12.4.4-10.1-.3-8.5-2-7.9-7.9.8-10.3-1.3-10.1 2.1-13.2 4.5-7.4 2.8-4.8 2.2-3.7"/>
<path d="M1442.6 5.7l12.9 1 12.8-.9 11 1.8 8.3 6.8 2.7 11.9-.9 12-1.4 10.6-2.1 9.2-11.5 3-12.4-1.1-12.7 1.2-8.3-2.3-7-10.7.6-12.5-.4-10.6 4.2-11 5.8-7.5 4.3-5.5"/>
<path d="M1512.6 7.6l9.5.2 10.9-1 10.1.9 8.6 2.5 6 11.1.4 11.7-1 10.9-3.7 11.8-8.8 6.1-11-.6-11.9-.7-11.7.5-8.2-9 .3-11.6 0-12.5 0-8.2 6.3-9.8 2.7-2.7 4.3-4.3"/>
<path d="M14.4 74.2l12.7 1.1 11.1-.9 10.4.8 9.2 5.4 2.6 10.8.2 13.2.8 12.2-5.6 10.7-9.5 2.8-10.9-.3-12.3-1.1-10.8-2.8-5.8-10.6 1-11.6-1-10.4.7-12.1 7.2-6.2 3.1-2.8"/>
<path d="M83.1 75.6l13.1-.2 10.1.5 13.1-1.9 8.6 8.8 1.7 8-.7 11.2-.9 10.4-1.6 12.5-11.7 5.3-10.4.2-11-1.6-11.2-2.9-7-10.2-.2-11.1-.5-10.9 2.5-11.8 6.2-7.2 2.9-3.4"/>
<path d="M150.7 73.6l12.1.7 12.3-.1 12.2.4 9.3 8.8 1 12.2.1 9.9-1.6 13.1-5.2 7.8-11.5 2.8-11.7.3-10.4-.3-12.2-6.1-1.4-11.3 0-9.6-1.2-11.1.9-9.6 7-7.8 3.9-4.3"/>
<path d="M219.2 74.3l10.8 1.5 11-1 10.3.5 9.6 2.5 3.7 10.8-.1 11.1 1.7 12.5-3 11-12 7-10.4-.6-11.6-.4-11.4.1-7.2-7.5.9-9.3-1.3-13.3 0-9.9 5.1-11.3 5.3-3.2 6.1-3.6"/>
<path d="M286.6 75.3l12.2.7 11.4-2.2 12.4 1.9 6.6 5 4.8 11.2.2 12.7-.2 8.6-3.4 9.5-9.8 6.5-11 1-12.9-.7-10.3-.5-8.1-8.5-.5-11.6.5-11.8-.8-10.6 6.8-8.2 2-3.1 3.6-5.4"/>
<path d="M354.5 75.7l12.4-.3 10.7-.6 10.5.2 9.3 3.5 2.8 11.6 1.1 11.2-.3 11.6-3.7 10.4-8.2 6.9-13-1.9-9.6 0-8.7 1.6-10.9-8.3-.9-12.8-.1-12.4-.2-10.3 7.1-9.9 2.1-.2 7.3-.9"/>
<path d="M422.6 75.4l11-.4 13.3-.9 11.3.8 8 4.9 2.8 11.8 1.1 10.6-1 10.5-2.9 12.1-11.9 5.4-12-1.7-10.2 1-12.1-2.5-4.9-9.1.1-10.1-.9-12.9 1.9-12.2 5.8-7.4 2.9-3.7"/>
<path d="M491.7 74.4l10 0 13.4 1 12.2-.1 6.6 5.1 2.8 9.6.9 12.7-.9 11-2.3 8.7-8.2 5.6-12.5.7-10-.4-12.5-.5-8.9-8.7 1-12.6.2-9.6-.2-11.7 9-9.4 5.4-5.7"/>
<path d="M559.3 75l10.9.7 12.9-2.1 10.7.2 8.5 8.6 3 8.2-1.1 14.3-.2 9.5-4.5 10.1-9.4 3.5-8.6 1.4-11 .6-10.9-.8-9.1-9 .3-8.4-.6-11.1.3-12.7 6.3-10.2 2.9-4.2 3.2-4.5"/>
<path d="M628.4 73.9l10.2 1.4 10.6 0 13-.3 7.7 5.7 3.6 11.1-.1 11.8-.8 11.6-5.5 11.2-10.5 1.6-11.5 1.7-11.8-1.7-7.9.1-6.7-11.3-.8-10.2.5-12.3 1.6-12.6 8.1-5.7 3.9-2.8"/>
<path d="M696 75.4l10.7-.4 13.2-1.2 11.8 1 8.3 6.6.4 12.6.8 12.1-.3 10.3-5.3 9.3-10.4 3.6-10.7.2-12.2-.6-10.6-3.5-4.2-10.4.2-11.5.2-11.9 2.5-10.3 6-7.6 3.9-4.9"/>
<path d="M763 75.7l12.5-1.6 11.6.9 10.2 0 8.6 4.8 3.9 9.5-1.3 11.5.1 10.8.4 9.2-10.3 8.8-12.9.4-11.5-1.4-12.3-1.7-6.9-9-.9-10.6 1.4-9.5-1.4-12.7 8-8.8 1.1-1.5 4.2-5.8"/>
<path d="M832.4 74.6l12.6 1.2 11.7-.8 11.8.1 7.4 7.8 1.7 10.6-.4 12.8-.1 9.1-6.4 10.4-10 3.6-11.4-.3-12.8 1-9.2-4.7-4-10.8-.6-11.1.6-12.4.8-8.3 7.2-8.5 3.2-3.7"/>
<path d="M898.3 75.5l13.2-1.2 9.4.7 12.2-.7 8.6 6.1 2.4 11.3.2 12.7 1.7 10.2-5.9 11.9-9.8 2.5-13.8 1.1-10.2.2-10.6-5.5-4-9.6-1.5-11.3 1.3-10.1-.9-10.4 9.5-7.7 5.4-4.3"/>
<path d="M966.5 74.8l14.2.3 10.4.7 9.8.1 10.1 5.6 1.8 9.3.9 9.4-.7 11.2-3.3 12.5-8.7 5.5-10.5-.9-8.3 1.7-12.3-.8-8-7.5-2.4-10.4-.1-9.9-.3-11.1 4.5-11.7 3.7-3 3.2-2.7"/>
<path d="M1036.3 75.7l10.4-.2 12.8-1.3 10.7.5 7.4 6.5 4.7 11.6-.1 11.4-.8 11.5-5.2 10-9 3.1-9.7.6-10.7.6-10.8-.2-8.1-10-1.8-13.1.8-9.4-1-12.7 7.6-7.5 2.4-1.2 6.3-3.3"/>
<path d="M1102.9 74.7l12.7.4 10.4-1 13.5 1.9 6.6 5.2 3.2 11.6-.7 10.9.3 10.3-5.1 11.2-9.8 3.1-9.7 1-11 .9-12.7-2.1-6.8-7.7.6-14.1-.5-9.1.6-11.4 9.4-10.3 4.8-5.1"/>
<path d="M1171.3 75l12.3.3 12-.9 14.2 1.2 6.1 7.5 2.2 11.7-.8 9.8-.4 13.6-4.7 8.1-11.2 2-9.1.6-11.6 1.1-10.5-3-5.8-10.3-1.6-11.2 1.1-11-.6-9.6 7.9-10.2 3.4-4.5"/>
<path d="M1238.5 74.6l13.6 1 13.2-1.9 9.7 1.7 9.6 8.1-.5 9.9 1.1 11.4.1 12.7-7.2 9.3-9.2 2.3-12.7-.3-13.7-.5-9.7-6.2-2-10.3 0-10.7 1-9.8-.2-9.5 8.8-5.8 6.4-4.2"/>
<path d="M1306.5 74.3l13.3 1.7 13.5-2.1 12.3 2.6 8.1 7.8-.7 13.2-.8 12 .3 12.7-10.4 7.5-10.9.4-13.4-2.1-9.7 1.2-8.7-7.2-1.6-10.1.4-10.7-.3-11 4.8-10.5 4.7-4.2 4.1-3.6"/>
<path d="M1375 75.9l12.3-.8 13.6.3 11.3.4 9.4 6.8-.5 10.8-.4 13.6-.1 9-4.1 10.4-11.3 3.8-10.2-2.2-12.1.3-10.3-.2-5.6-10.8-.3-11.3.8-10.6-1.5-10.7 9.8-9.5.6-.2 3.7-1.7"/>
<path d="M1442.4 74.2l10.4-.6 11.6 2.1 10.7-1.9 11.2 6.1 3.9 11.4-.7 10.7.2 10.7-2.7 11.5-10.6 4.9-12.5 1-12.3-.1-9.6-3.1-7.5-7.7.6-11.5 0-8.6-.1-13.3 7.4-9.3.9-1 5.4-5.6"/>
<path d="M1512.4 75.9l11.4-1 13.3.3 8.6-1.4 10.1 6.9.3 11.4 2.3 11.8-1.7 11.7-3.9 9-10.9 3.6-11.8.7-11.1 1.2-10.3-3-5.5-7.2-1.6-11.7 1.1-11.6 1-11.2 5.8-9 .9-1.4 3.2-4.6"/>
<path d="M16.5 142.6l11.1-.3 11.1.6 10.1-.3 8.3 6.3 3 9.6 1.6 14-.3 11.8-5.1 9.2-12.2 2.8-10.1 1.1-11.1.3-10.3-4.5-4.9-8.4-.5-9.2.7-13.5-.3-11 5.2-6.4 1.6-1.6 4.7-4.7"/>
<path d="M83.6 143.8l11.9-2 9.4.1 12.8 2 8.1 5.3 4.5 9.7-.5 11.4-1.5 13.6-1.6 7.3-9.6 5.2-12.5 1.8-11.2 0-10.4-.9-9.3-8.3-.1-11.8.6-12.5 1.6-11.6 4.9-6.8 2.7-3.4 4.7-6"/>
<path d="M152.5 142.3l10.8 1.7 12.9-1.4 10.7 1.2 9.4 5.4 1.2 12.1-1 10-.4 9.1-1.2 11-9 5.8-10.5.3-12.6-1.1-10.5.8-8.4-6.5 0-11.9-.5-10 .2-12.8 2.8-9.5 4-4.8 4.4-5.3"/>
<path d="M219.4 142.3l11.7 1.5 13.8-1.5 9.9-.3 7.9 7.8 1.8 11-.3 9.2 2.2 11.7-4.7 11.2-9 4.3-13-.1-12.3-.9-10.5-.8-6.7-6.9-.2-10.7-.2-12.7 1.2-11.2 5.8-8.7 1.8-3.6 3.4-7"/>
<path d="M286.5 143.9l11.9 0 10.7-2.1 12.9.2 8.9 8 3.1 10.6-1.7 12.9.7 8.7-3.9 10.6-10.4 4.4-11.2-1-11.7.2-10.7-1.8-5.5-10-.4-12.4-.7-13.1.4-8.1 7.9-7.3 5.6-5.2"/>
<path d="M356.4 143.4l10 .2 11-1.9 10.1 1.1 8.4 4 4.6 9.7-.5 9.3 1.7 12.2-1.6 10.9-7.3 7.4-9.7 1.5-9.7-.2-12.7-1-10-2.6-3.1-9.8-1.8-12.4.8-11.3 1.2-11.4 8.9-6.7 3.3-2.5"/>
<path d="M424.4 142.6l11.5-.3 12.4.1 11.6-.4 9.2 8.4-.7 9.5 1 13.8-.1 10.8-5.8 10-11.7 1.8-9.6.1-12.6 1.5-7.8-2.9-8.1-10.1 1.2-9.2.9-11.2-.4-12.6 7.6-7.8 2.8-2.9"/>
<path d="M490.6 142.3l11.5.9 11.1.2 12.6.4 8.2 5.9 2.5 10.1-.4 12.6 2.3 11-5.5 10.2-8.7 4.6-12-.8-13.3.2-10.5-2.8-5-10.8-1.1-10.6-.5-13.6 2.8-12.1 7.4-6 3.6-2.9"/>
<path d="M560 143.2l11.4-1.3 12.6 1 12.5-.6 7.8 7.5-.1 10.5.2 10.3.1 13.9-4.2 9.1-8.9 2.8-13.3.5-11.4-.1-10.6-1.9-4.3-9.7-.7-9-.3-14.1-.9-11.3 9.3-8.1 4.7-4.1"/>
<path d="M628.1 142.6l11.3-.3 10.8-.2 14.3.2 7.9 7.1 1.6 11.2-1.4 10-.3 13.5-4.5 8.8-10.9 4.5-13.1.5-11.6-1.2-9.1-3.6-5.4-8.9.9-13.9 0-10.3.9-10.6 8.9-6.6 5.7-4.1"/>
<path d="M695.5 142.3l11.5.2 10.3 1.3 12.5-1.2 8 4.4 4 11.8-.2 10.6-.6 11.9-4.2 10.5-6.4 5.2-10.7 1-10.5-1.4-13.4.9-5.5-5.3-3.6-13.4-.3-9.4.4-10.3 3.7-11.2 5.6-6 5.1-5.5"/>
<path d="M763.2 142.9l13-.7 12.4 1.2 10.3-.1 7.2 5 4.3 12.1-.5 10.2-1.2 13.4-4.3 9.4-7.5 3.6-11.5.9-9.5-.8-12.3-.6-7.7-8.2-.5-11.1-1-13.2-.1-10.3 5.3-7.3 4.4-4.7 3.4-3.6"/>
<path d="M830.3 143.9l14.6-.1 11-1.4 12.6-.5 9.1 9.7-.3 12.3.8 10.3.1 11.4-6.9 8.3-10.4 3.3-12.5-.3-13.3-.1-9.1-5.7-2.6-10.5-1.5-11.2 1.2-12.9 2.6-7.9 5.7-5.6 4.2-4.1"/>
<path d="M899.4 143.6l10-1.9 11.4 1.8 10.5-.8 9.2 2.9 5.1 10.2.5 13.2-1.7 12.7-2.1 9.7-7.9 5.4-9.4-.5-11.4-.3-10.2 1.3-8.9-6.6-2.6-9-.6-13.9 0-10.4 3.8-10.4 5.2-4.1 4.3-3.3"/>
<path d="M967.9 143.4l11 .4 13-2.2 10.8.4 8 7.1 2.3 9.3.4 13.5-1.4 9-.9 11-10.7 4.3-12.5.2-12.3.8-10.5-3-5.2-8-.3-9.6-1.1-10.7-.6-12.6 9.1-9.7.1-1.9.7-7.5"/>
<path d="M1034.6 141.9l12.4.3 10 .3 12-.4 9.6 6.8 2.3 7.9 1.5 11-2.3 12.7-1.9 10.9-8.1 5.1-10.6 1.6-11-1.5-11.5 0-8.9-7.2-.7-10.8.4-11.2-1-12 6.6-10.4 2.8-3 4.3-4.5"/>
<path d="M1104.4 142.4l8.7.7 11.7-.1 10.7.1 11.8 5.9 1.5 10.8 1.2 12-.4 12-6.4 10.1-8.6 4.4-12.6-1.9-12.8.4-9.2-3.4-4.5-8.8-1-9.5 1.4-13.2.5-12.6 6.4-7.6 3.8-4.5"/>
<path d="M1172.2 143.4l11.5-1.6 9.8 1.3 13.6-.2 7.7 8.1 2.2 10.4.2 12.7-1 10.7-4 9.1-12.6 3.3-10.9 0-10.1.9-10.8-3.2-4.6-9.7-.9-12.4 0-11.8.2-9.9 8-8.4 1.1 1 5.8 4.7"/>
<path d="M1239.6 143.1l11.2-.9 10.2-.4 13 0 7.7 7.4 2.6 11.4 1 10.1-1.1 9.3-3.5 13.3-8.9 5-10.2-.4-11.8-.6-10.3-1.3-9.2-7.7-.6-13.8 1.3-11.1 1.2-11.5 7.4-8.4 4.5-5.2"/>
<path d="M1307.9 143.1l9-.4 12.1.3 11.6-1.1 10.4 5.7 2.4 10.8 1 10.5-.4 11.4-1.6 8.6-8.3 8.7-12 0-11.4.1-10.9-.3-10.4-7.4.1-10.8-1.6-10.6 1-8.6 1.4-9.9 6.6-7.9 3.5-4.2"/>
<path d="M1376.4 143.7l10.2-.9 9-.2 14.6 1.3 8.4 4 1.7 10.5 1.1 11.5-1.1 13.2-3.9 9.9-8.5 5.1-11.9-1.7-10.9 1.2-12.9-2.7-6-8.2 1-10.3.4-11.5-1.4-13 7.8-8.1 2-.5 5.8-1.5"/>
<path d="M1442.7 143.3l10.4-.3 13.6-.6 10.2.3 8.3 6.5 3.7 10.9-.1 12.6-.3 11.3-4.1 9-8.8 4.7-11-.9-11 .2-11.5-.7-6.4-8.7-.2-11.5-1.9-13.2 2-13 7.6-8 4.1-4.4"/>
<path d="M1511.2 142.6l13.4.2 12.3-.5 11.8-.5 7.9 9.6 1.4 9 .1 12.5-1.2 10.1-4 11.5-11.1 3.2-10.8-.1-12.3-1.5-9.9-2.5-5.7-10.6-.7-11.8-.7-9.9 3.6-11 7.3-7.1 5.2-5"/>
<path d="M14.6 211.9l12.4-1.4 11 .6 11.4.6 9.4 5.9 3.5 9.7-.4 11.9-1.2 10.5-3.6 10.6-10.2 5.3-11.5-.5-12.4-.8-12.1-2.7-2.9-8.7-1.6-13.1-.8-11.4 3.1-11.9 6.4-6.2 5.2-4.9"/>
<path d="M82.4 211.2l14-.9 11-.4 12.1.2 8.7 8.4-.2 8.8 1.2 12.8.1 10.1-2.9 8.3-8.3 7.3-11.1-1-10.3.6-9.8.4-8.8-7.9-4-8.4.9-11.1.8-11.2 2.4-10.1 6.2-5.6 4.1-3.6"/>
<path d="M151.4 210.4l10.3.3 12.9-.3 8.8 1.6 9.4 4 3.5 9.7.7 9.2.6 11.7-3.1 11.3-8.6 7.8-12-1.3-10 .8-12.2-.7-9.1-7.7-.9-9.9.7-10.8-.4-11.5 4.5-10.8 5.3-4 4.8-3.6"/>
<path d="M218.7 210.4l11.7.1 11 .6 12.8-.3 7.7 6.3 4.4 9.2 0 13.9-.7 9.5-4.5 9.5-10.6 6.3-9.5-.1-10.4.1-12 .3-5.7-7.5-1.6-11.6-1.2-12.3 1.3-8.7 2.8-11.4 4.1-2.5 3.8-2.4"/>
<path d="M288.1 211.4l12-1 12-.1 12.8 1.9 6.1 6 3 11.2-1.1 13.2 1.1 12.2-8 8.5-9.4 2-12 .8-9-.7-10.2-2.2-6.2-7.7-.7-13.3 1.2-10.4-1.1-11.1 7.5-9 1-.4 4.1-1.9"/>
<path d="M355.2 211l11.8.7 11.7.2 10.4-1.2 8.8 5.6 2.3 11.4.7 11.6 1.1 11.6-5.3 10.7-9.9 2.9-11.1-.3-11 1.5-12.2-3-4.9-9.4 0-11.5-1.1-11 1.5-9.8 5.7-8 2.1-1.7 5.8-4.5"/>
<path d="M422.9 209.6l10.5.6 13.3 1.6 8.5-2.2 10.1 6 4.6 10.1-1.1 9.2.3 10.9 1 9.9-9.2 9.2-13.1-.4-12.2-.5-9.6.9-8.5-4.3-1.9-10.1-2-9.4.1-11 1.7-11.2 7.8-7.9 3.1-3.1"/>
<path d="M492.1 210.3l11.1.4 13-.2 11.8 1.1 8.4 6.4 1.4 10.5.4 9.3-2.2 11-1.9 12.5-12.6 4.3-13.1 0-9-.8-11.1-2.6-6.5-8.2 1.5-11.4-.2-12.1.7-10.7 7.9-8.5 2.9-3.1"/>
<path d="M558.8 211.3l12-.7 10.8.5 12 .6 9.3 5.9 1.8 9.8 1.6 12.3-2 12.3-4.7 9.8-11.2 2.9-12.2.3-10 0-11.1-4.7-4.2-10-1.2-9.4 1.6-11.4.8-11.4 7-6.1 3.8-3.3"/>
<path d="M628 211l10.4-1.2 11.5 1.5 13.4.4 8.5 5.2 1.7 10-.2 13 .7 11.1-5.7 10.7-9.2 2.6-12.7.3-9.8.2-12.6-4-6-9.4.8-13.3-.7-9 1.9-10.1 7.3-7.9 4.6-5"/>
<path d="M696.4 210.6l12.7.1 12.3.9 11.2.2 9.1 6.8-.6 9.3.4 13-1 12-5 8.8-10.4 3.9-10.8.1-11-.5-10.8-3.7-6.6-7.6.8-10.1.9-11.8-.8-10.4 7.8-10 1.8-.9 5-2.3"/>
<path d="M763.4 211.9l9.7-1.2 11.3.3 11.3.4 11.2 4 1.2 10.3 1.2 11.3.5 14.1-3.8 10.1-10.8 4.6-13.1-.2-12.7-.3-9.4-3.7-4.5-7.5-1.2-12.5-.5-10.8 1.8-11.5 8-9.5 4.2-5"/>
<path d="M830.9 211.1l10.8-.1 12 1 11.3-1.6 9.5 7.6 2.6 10.9-1 9.5.3 13.1-3.3 8.1-10.1 5.3-8 .2-12.4-.7-11.6.2-9-9.7 1.5-10.6-.2-11.2-1.3-12 8.4-8.6 2.1-2.7 4.7-5.8"/>
<path d="M898.6 210.6l13.2-.1 11.4 1.1 9.3.3 7.7 2.4 5 8.9.4 11.9-.5 11 .1 12.6-10.5 6.8-10.8-1-10.6-.2-10.3 1.3-8.9-5.4-2.4-10.8-.5-10.6.1-9.4 1.3-12.2 8-6.3 4.8-3.8"/>
<path d="M967.4 210.6l11.7.1 11.5.9 10.5-.2 10 5.8 2 10.2 1.1 11.5-1.4 9.3-2.9 11.6-8.6 6-10-.9-11.7.5-13-1.5-7.7-9.1.6-11.4-.9-11.5.2-9.5 6.2-10 3.5-.4 5.8-.7"/>
<path d="M1035.9 211.9l9.7-.8 12.4.5 13.8-1.8 8.7 9.2-.2 11.8 2 13.7-.4 11.9-8.7 8.7-12 .2-11.3.2-10-.7-10.5-5.9-3.6-8-.1-11.5.7-12.4 4.3-11.8 4.7-4.7 4.9-4.9"/>
<path d="M1104.1 211.5l9.8-1.1 11.5 1.4 13.5 0 7.9 5.7 3.4 11.3-1.4 13.4.3 11.5-6.5 9.3-10.4 1.9-11.2.9-11.7-1.7-8.3-.1-6.9-9.5 1.9-12.7-1.9-11.9 1.9-11.4 6.5-8.5 3.4-4.4"/>
<path d="M1171.2 211.5l10-1.4 11.6.7 11.9.1 9 6.5 3.4 10.1-.9 11.5 1.6 10.3-3.1 8.7-8.2 6.1-8.7 2.1-11.9-1.9-12.1 1.2-8.6-6.8-2-10.5.5-10.7-2-10.1 3.6-12.2 7.3-3.8 4.4-2.3"/>
<path d="M1240.5 211.3l11.8-.9 11.5.3 11.4.1 7.7 5.6 1.2 9 .1 10.7 2.1 11.5-2.3 9.7-8.9 7.9-12.3.6-11-1.5-12.3.9-8.7-9.3-.8-12.1 1.6-12.3-.5-11 7.7-9.5 1.7.4 6.4 1.5"/>
<path d="M1308.1 211.7l10.9-.6 14.1 0 12.5 1 8.2 6.6.2 10.4-1.6 12 1.4 12.7-4.7 8-10.5 4.6-10.3-.7-9.6.4-11.5-2.2-8.9-8.3.6-10.8-.9-12.8.1-11.1 7.1-9.9 1.6-.2 7.8-1.1"/>
<path d="M1375.9 210.1l10.5-.2 11.2 1.3 13.8-1.2 7.5 6.9 1.3 11.1.2 12 1.5 12.5-6.5 9-9.5 3.7-11.4-.1-10.9 1.1-11.5-3.8-4.6-8.8-1.4-8.5 1.8-12.1-1.5-12.6 7.6-9.6 1.7-.4 6.3-1.5"/>
<path d="M1443.4 210.1l11.7-.2 13.1-.3 9.2 1.2 8.4 6.7 3.9 11.2 0 10.4-.8 9.7-3.2 11.4-8.9 5.4-13.1.5-11.4-1.2-11.6-3.4-7.1-8.3.1-11.6 1.3-13 2.3-10.2 5.7-8 2.9-4"/>
<path d="M1512.6 210l12.2-.1 9.9 1 11.5.4 10.2 7.9.1 11.3 0 8.9 1.3 10.9-4.7 10.3-6.6 4.8-12.2.2-12.4-1.3-11.1-.2-9-9.6 1-10.1-.5-10.6.6-8.9 4.2-10.2 4.2-3.6 4.9-4.3"/>
<path d="M16.6 279.1l11.7-1.3 11 .9 8.9-.2 10.2 6.5 3.2 12.3 0 12 .3 10.1-6.9 9.9-7 4.2-13.4-.7-10.6 1.4-11.7-4.2-5.5-7.6-.9-10.8 0-11.4.4-10.6 6.8-9.8 2.6-1.2 5-2.4"/>
<path d="M84.4 279.4l11.8-.1 8.5 0 13.1-1.4 8.4 5.7 2.3 9.8 1.5 10.9-.2 14.4-3.9 8-9.5 6.7-10.9.4-10.7-.1-10.3-1.6-9-7.2.1-10.5.3-11.1-1.6-12.2 6.7-10.2 2-2.2 4.5-4.8"/>
<path d="M151.9 277.8l9 .1 11.3 1 10.2-.7 11.1 4.1 3.3 11.7.7 11.2-.3 13.2-4.2 10.2-8.1 4.7-10.4-.7-13.4-.2-9.3.8-8.4-9.6-.9-9.7-.7-9.6.4-13.6 6.5-7.6 2-4.6 3-6.6"/>
<path d="M220 278.7l10.7.8 11.2-1.4 12.8 1.6 9.6 6.9.7 10.3-.4 9.8 1.2 9.9-4 11.5-9.6 5.4-8.6-.2-13 .2-10.4-.1-9.4-7.7-.2-10.8.3-13.3 1-11.2 4.8-8.8 2.5-2.9 2.7-3.1"/>
<path d="M287.5 278.5l10.9.1 9.7-.7 12.1-.2 8.8 4.8 3.2 11.2.1 8.7.9 13.2-2 10.8-10.5 7.9-11.7-.6-10.8.1-12.3-1.8-7-9.6-.4-11.5 1.1-11.8-.2-11.1 7.1-9.3.5-.8 2.5-3.5"/>
<path d="M354.7 278.2l12.5-.2 12.6 1.5 11.2-.8 8.8 6.9 2 9.4.6 13.9-1.6 12.4-4.3 9.5-12.4 1.6-10.3.1-11.3 0-10.5-2.7-5.4-11.4-.8-13 2.1-12.8 4.4-8.7 2.8-5.3 2.7-5.1"/>
<path d="M424 279.4l9.6-1.2 11.4 1.1 11-1.1 7.9 3.9 6.4 11.1-1.2 12.6 1.1 10.8-3.5 10.7-7.5 6.9-14.7-.4-11.6-.9-10.9-.3-6.5-8.2-1.2-11.3-.5-11.4 1.3-11.9 7-8.9 1.3-1.5 4.1-4.7"/>
<path d="M492.4 277.8l11.5.3 9.1.6 13.2-.7 8.5 5.5 2.5 10.5-.8 10.6-.3 12.7-1.6 10.7-8.9 5.4-11 1-9.2-.8-13.2-.1-8.4-7.1 0-10.4-1-12.5-.5-12.1 5.9-9.3 2.3-2.8 3.5-4"/>
<path d="M559.5 279.1l10.4.2 13.2.1 12.7.1 8 6.1.5 12-.1 11.1 1.3 12.9-5.4 7-8.4 4-13.6.4-13 .9-7.6-4.4-7.6-8.8 2-10.5-.7-14.5 2.6-10.1 4.9-6.6 3.3-4.4"/>
<path d="M627.7 277.8l9.2 1 11.6.2 12.5-.3 9 6.4 4.1 9.4-2 12.7 1.2 9.1-4.8 11.7-6.8 5.5-13-1.2-14.1 1.9-9.2-3.6-6.6-9.4-.1-11.3.6-12.7.2-11.4 8.3-7.6 5.1-4.7"/>
<path d="M694.4 279.1l13-.4 13.5-1.1 11 1.2 8.2 6.8.7 11.2.9 10.6-.3 12-5.8 9.3-8.2 5-13 .5-10.2 0-10.7-4-7.6-8.3 1.3-10.9-1.5-12.3 2.1-9.8 4.9-8.9 2.2-1.1 5.1-2.6"/>
<path d="M763.4 278.4l10.9-.6 13.7 2.1 9.9-1.5 9.4 6.9 2.8 12.1-.4 12.7-1.4 10.2-3.9 10.3-10.7 3.4-12.2-1.6-11.5 1.9-8.9-4.9-5.1-7.7-1.8-12.9-.2-9.8 2-12.7 7.3-7.2-.7-.6-5.2-4.4"/>
<path d="M831.2 279.5l9.7-.7 12.6.1 11.6.5 8.8 4.9 3.6 13.6-.8 9.2 1.5 12.6-5.7 9.6-10.3 3.3-11.2 1.2-10.9.1-12.1-2.8-5.4-11.3.4-10.4.9-13.8.2-9 7.5-8.9 3.4-4.1"/>
<path d="M899.9 279.8l10.9-2 13.2 1.8 11.9 0 8.4 7.6.2 11.9 1.3 11.1-.5 11.5-5.5 8.8-11.6 1.8-10.8 1.3-12.2-.6-9.7-3.9-5.2-9.2.5-12.2.7-11-.2-10 7.9-5.9-.5-1.1-2.5-5.4"/>
<path d="M968.5 279.8l11.6-1.3 13.1.3 9.3 0 10 8 .2 11.7.8 10.3.7 12.4-6.4 8.7-10.5 4.1-12.5-1-9.8.1-12-4.5-3.1-9.6-.8-12.6-.5-10.7 4.3-10.5 3.8-6.3 4-6.6"/>
<path d="M1035 278.9l11.4-.7 9.2 1.6 13.1-1.1 7.7 5.2 5.3 9.9-1.6 10.2 1.1 12.1-1.2 10.5-9.1 7.4-11.9-.1-9.9-.4-13.6-.6-7.9-7.1-1.2-12.3-.8-11.1 1.4-13.4 6.9-7.2.6-3.7.8-4.5"/>
<path d="M1103.8 278.2l12.3-.3 12.2 1.4 12.6.7 6 6.7 1.7 9-.3 14.7 0 11.5-6.7 8.9-9.6 1.4-13.4-.1-12.3.2-8.3-5.1-3.8-8.4.6-11.2 1-9.6.5-11.5 8-7 4.9-4.2"/>
<path d="M1170.9 279l13.5-1.3 11.2 2.3 9.2-.4 9.6 5 3.6 10.9.2 11.1-1 12.7-3.7 8.7-10.5 4.8-11 .9-12.6-1.2-11.9-1.8-5.7-10.2 0-10.2 0-12.3 3.2-11.3 7.1-8.2 3.7-4.2"/>
<path d="M1238.9 279.7l11.8-.6 11.5-1 12.7.6 8.7 8 2.5 13.4.2 10.4-1.6 10.8-5.2 8.8-10.9 2.9-11.1 1.3-13.4-1.4-8.7-4.3-5.8-9.5 1.2-10.4-1.2-9.3 1.7-10.8 7.2-9.8 1.6.6 3.9 1.8"/>
<path d="M1307.2 279.1l14.2-.6 8.7-.4 13.9 1.6 6.7 4.6 3.2 10.9.4 11.2-1.8 11.8-2.2 10.6-11 4.1-10.1-.1-11.8-.2-13-1.2-5.2-9.5-.2-12.8-.9-12.6 1.3-10.3 8.5-6.1 6.3-4.4"/>
<path d="M1375 279.8l11.4-1.3 13.9 0 12.8-.7 7.5 8.9 1.2 10.7-1.1 12.4 1.4 11.3-6.5 9-10.7 4.1-8.6-1.8-11.1.1-11.5-1.7-6.7-9.9.9-11.4-.7-11.1 1.3-12.2 6.8-8.5 4-5.1"/>
<path d="M1444.2 277.6l10.1.6 11.7 0 11.5.7 9.6 6.5 3.2 10.5-1.8 9.3 1.5 12.9-3.4 9.5-9.1 6.5-12.1-2-12 1.1-10.9-.7-7.1-10.8.6-11-1.2-11.2 0-12.3 7.9-7.1.3-2 1.3-7.1"/>
<path d="M1512.5 279.9l8.9-.1 10.8-.4 10.6-1 11.4 6.5 2.1 8.4.4 13.4-.2 9.3-2.4 11.3-8.3 5.8-10.6-.7-12.1 1.7-10.9-.5-7.2-7.8-2.3-10.1-.9-14.3 1.8-9 5-10.5 2.5-2.4 5.6-5.7"/>
<path d="M14.8 346l12.4 2 12.7-1.6 11.2 1 10.3 6.3.7 12.5-1.8 9.4-.3 11.6-5 10.7-8.6 4.1-9.9-1.5-12.2.7-9.8-.5-7.5-9.9.2-11.1-.9-12.8 1.2-13.1 7.4-6.5 4.1-3.7"/>
<path d="M83.3 346.6l11.7.3 13.1.1 11.9-.2 7.1 7.6 3.2 10.8 0 10.7-1 8.9-3.6 12.2-9 3.3-11.3.8-10.5-.3-12.3.8-6.7-9.4-1.7-11.5.6-9.4-.5-13.7 4.8-6.7 3.8-3.9 3.7-3.8"/>
<path d="M150.3 347.9l14.2-1.9 13.1 1.4 11.4-.6 8.1 10-.2 10.9-.9 9.7 1.9 12.1-6.3 8.2-7.5 4.2-12.4-.4-12.2.1-11-2.7-5.2-9-.1-11.1-1.2-9.2-.1-12.2 5.5-6.9 4.8-3.7 6.3-4.8"/>
<path d="M219.8 345.9l8.7 1.2 12-1.4 14.6 1.9 6.6 5.8 2.5 9.9 1.4 12.1.7 11.4-4.9 9.7-11.8 3.8-11.2 1.4-11.8.5-11.5-4.8-3.6-9.1-1.3-12-.2-10.4 2.5-10.6 5.9-7.4 4.8-6"/>
<path d="M286.8 348l9.7-1.1 12.6-1.1 11.6.3 10.3 8.4 2.6 10.1.8 10.7-2 10.2-3.7 10.8-6 5.1-11.4-1.2-12.3 0-10.8 1-6.3-7.6-4.1-8.6.6-10.9-.4-12.5 5.2-9.2 4.1-5.4 3.2-4.3"/>
<path d="M355.4 346.7l11.2.1 11.9.3 12.2-.5 7.9 7.2 2.8 9-1 12.4 1.5 10.1-5.4 12-8.5 3.3-13.2 1.2-11.3-.3-11.7-2.7-4.9-10.1.7-9.6-.5-10.3-1.1-12.4 7.6-7.3 1.4-3 2.9-5.9"/>
<path d="M422.8 346.6l11 .4 11.1-.5 12.5 1 10.2 5.4.5 10.9 1 11.1-.9 11.6-1.4 8.1-8.7 6.1-12.6.3-13.3-.2-12.5-2.5-5.6-9.9 1.2-9.1.3-11.8-.1-12.7 8.4-6.4 4-3.1"/>
<path d="M490.6 347.3l13.2-.4 13.6-.6 8.4-.4 9 8.8 2.1 11.5-.3 10.6.8 11.5-5.5 10.8-9.6 2.3-10.7-.8-10.7 0-11.1-2-7.9-7.9-.3-12.6 1.4-10.3 1.3-13.1 7.1-8.4 3.2-3.8"/>
<path d="M558.6 347.1l13.7.3 10.1-1.5 12.6 1.5 8.5 6 1.9 13 .5 10.1.1 11.7-5.8 8.5-8.3 4.3-11.1-.9-10.7 1.6-12.6-.9-7.7-7.6 1.2-12.8.1-9-.4-11.7 7.1-9.7 2.6-2.7 4.3-4.5"/>
<path d="M626.9 346.8l13.5 1 13.3-.5 11.1.6 8.7 8.6.4 12.1-1.6 10.5 1.5 10.8-6.4 10.7-10.4 1.4-13.5-.4-8.7-.8-9.1-2.6-6.8-8.1.6-12.3-.3-11.4.3-10.7 7-9 4.6-5.8"/>
<path d="M695.1 347l12.1-.5 12.4.3 10.5.9 8.4 5.8 3.3 9.3-.6 12.7.1 11.5-4 8.9-10.5 5.2-10.3.2-9-.8-9.7.5-9-6.4-1.4-9.4-1.1-11.7-.5-9.6 3.1-12.1 5.6-3.9 5.9-4"/>
<path d="M763.8 345.8l10.7.1 11.6 2.1 12.5-.2 7.6 5 2.2 11.1-.3 12.7 1.5 10.6-5.5 10.5-8.8 2.5-10.9 0-9.3.2-12.8.8-7.4-10-.4-14 1.5-12.4-.1-11.1 6.6-5.4 5.8-4.9"/>
<path d="M832.5 346l9.3 1 12.7-1.1 8.3 1.4 11.2 5.2 2 8.5 1 14.3-.2 10.7-3.2 9.4-7.6 4.8-11.3.3-12.3.8-11 0-8.2-9.4-1.2-9.4 1.7-13.6-.4-10.4 4.9-8.3 3.2-2.6 3.6-3.1"/>
<path d="M899.9 347.7l11.8-1.3 13-.2 10.2 1.5 8.6 7.2 2.2 11.8-.3 13.8-.9 9.3-7 9.4-10.4 1.8-11.9.1-11.9.2-9.2-6.3-2.4-9.9-.8-9.6-.1-11.5 3.1-10.8 6.2-6.7 3.2-3.3"/>
<path d="M966.9 347.7l13.1.2 11.1-1.4 12 .8 10.2 8.2-.7 10.4-.3 10.7 2.1 14.1-6.5 7-12.8 4.7-12.7-1.7-13.3 1.3-7.9-5.4-1.4-12.7-1-10.8-.5-11.4 3.4-8.6 4.7-6.5 2.7-3.7"/>
<path d="M1034.4 346.4l13.8.9 10.4-.6 12.6 1.3 8.8 5.1 1.5 12.2-1.5 12.6.3 10.5-3.2 10.1-12.4 2.9-10.6 0-12.1.6-8.2-3.7-8.1-9.2 2-11.6.2-12.3 0-8.6 8.2-8.7 3.7-3.9"/>
<path d="M1102.5 346.1l12.6.3 13.7 1.2 9.5-1.6 9.1 8.2 1.8 11.3.3 11.8-1.2 9.8-4.2 9.5-8 4.8-12.5-1.3-13.2.7-10.5-3.5-5.4-10.1 1.4-11.3-.8-11.3 2.4-10.9 6.1-7 2.9-3.3"/>
<path d="M1172.6 346.5l9.9 1.1 11.8-1.3 12.2-.1 8.7 6.7 1.1 11 1.7 9 .3 11.7-3.5 11.1-11.6 6.5-9.6-.4-12.5-1.5-11.3-1-7.4-9.8 1.5-12.9-1.2-10.7.1-11.4 8.3-7.6 5.7-5.1"/>
<path d="M1239.1 347l11.9-.2 11.4-.5 11.3.2 9.7 6.9 1 12.4 1 9.6-1.1 12.8-3.2 9.3-11.7 3.5-11-1-10.2.6-11.9-2.8-5.6-9.7-.1-11.4-.8-11.3 1.5-11.7 9-6.3 3.3-2.3"/>
<path d="M1307.1 345.8l13.3-.1 10.5 1.3 11.8.2 6.5 5 3.3 10.6 1.3 11.8.2 10.7-3.9 10.4-11.2 4.7-10.9 1.7-9-.5-11.8-2.6-7.9-5.8-.4-13.8-1-12.1-.2-9.8 7.7-9.1 2.5-.9 5-1.7"/>
<path d="M1375.4 347l12.5-1 10.7 1.4 11.4.2 11 7.8 1.2 7.3.1 14-.8 11.1-5 8.1-6.9 4.8-12 .9-12.6-.1-10.6-.6-6.9-9.7.4-12.3-1.5-10.8.4-9.8 6.4-7.4 1.6-2.9 3.5-6.5"/>
<path d="M1444.2 347.6l10-1.7 12 1.3 13.4.1 8.2 7.5 1.9 11.3-.2 12 0 10.3-6.5 10.9-8.7 1-11.5 1-10.5.7-10-2.8-8.2-9.4.8-11.7.9-10.1-.5-10.2 8-10.6 0 .7.7 5.8"/>
<path d="M1512.3 347.1l11.6-.5 14.1 1 11.7 0 6.9 8.1 1.7 8.5-1.8 11.2.8 11.9-4.5 11.2-12.5 3.6-11.4.2-10.3-2.3-11.5-1.2-3.9-12.2-1-13 .9-10.9 4.3-10.6 3.3-6 2.4-4.6"/>
<path d="M15.8 414.4l13.1.3 9.6.2 12.6.8 9.9 7.6-.9 8.5.7 11.3-.5 11.7-3.9 10.5-7.8 4.9-11.5-.4-11.4-1.4-12.4-.5-7.6-9.1 0-11.6.9-11.1-.5-10.5 5.9-7 2.7-3.6 4.5-6.1"/>
<path d="M82.4 414.7l11 1.2 12.8-1.3 11.1-.5 9.8 6.4 2.5 10.8-.5 11.1.9 13.6-6.6 9.6-6.6 2.9-11.8.5-13.4.8-10.7-3.9-5.1-8.5-1-12.1.8-11.4-1.5-10 8.7-8 1.6-.5 4.3-1.3"/>
<path d="M152.2 414.5l10.6-.7 12.1 2.1 11-1.8 6.6 5.4 4.2 10.7-.3 8.6 1 11.7-1.4 11.6-8.1 8.2-13.2-1.1-10 .1-12.9-.9-9.3-8.2-.3-10.1 1.5-10.2-1.7-11.3 5.4-9.2 4-3.5 4.6-4.1"/>
<path d="M220 414.8l9.8-.5 10.8-.1 13.4.6 7.3 3.6 5 12.4-1.3 12.1-.9 11.8-4.4 10.9-7.7 3.6-12.1-.9-11.6 1.6-11.6-2.4-5.8-6.9-.6-12.3.5-12.4-.2-11 6.8-8.1 1-1.6 2.5-4.1"/>
<path d="M288.5 414.5l12.2.1 11.9 1.4 9.1-.8 8.7 7.5 2.9 10.9-.9 10.8 1.1 10.1-3.6 9.6-10.3 5.7-11.5-.8-11.7-1-10.5-.5-8.3-8.7.1-11.8 2.3-9.2-1.1-11.9 5.7-8.5 2-3.1 3.8-5.7"/>
<path d="M356.7 414.6l10.2-.7 12.3 1.4 11.1-1.3 10.4 7.7 1.1 10.1.5 11.6-2.3 11.1-1.8 9.4-11.6 4.3-11.6 2-13.4-1.5-8.9-1.3-6.4-8.6-.2-10.7.6-13.2.2-9.2 8.5-10.8-.9.8-3.3 3.1"/>
<path d="M423.1 413.9l11.4.4 10.5-.1 9.2-.1 9.8 4 5.4 10.6-.2 11.3-.1 9.4-1.2 12.4-7.1 8.5-12.5-1.6-11.5 1.5-11.8-.8-6.3-6.7-4-8.1 0-10.5-.6-13.8 2.4-10.7 7.7-4.7 3.6-2.2"/>
<path d="M491.8 415.2l10.8.6 9.1-1.9 12.4 1.5 9.4 4.8 3.3 10.4-.6 9.2 1.8 10.6-2.9 11.7-10.1 7.5-10.1.3-11 .5-12.4-.4-8.8-7.5-.2-13.3 1.2-11.4-1.6-11.1 5.2-9.1 5-1.9 6.5-2.4"/>
<path d="M560.3 414.5l13.1-.4 9 .6 12.4 1.2 7.9 6.2 3.3 11.2-1 10.6-.2 10.1-1.3 9.1-11.7 5.3-10.7 1.3-9.7-1-11.8 1.3-8-7.5-2-13.4 1.3-12.5.3-11.2 6.7-9.4.6-2.3 1.3-5.6"/>
<path d="M628.2 415.2l9.7-.4 9.7-1 10.7 0 9.2 4.9 6.9 8.2-.8 12.4-.3 12-3 10.9-8.9 7.8-11.7-1.2-10.1.1-12.6.3-8.5-7.7.2-10.6.4-11.8-.8-10.1 5.2-10.2 3.4-4.9 3.3-4.7"/>
<path d="M695.4 413.8l12.3 1.3 13.4 0 9.7-.1 7.8 5.1 3.4 10.1-1.1 12.5-.6 9.8-.3 9.1-10.8 6.8-8.8.3-9.8.1-13.6-.4-9.1-6.7-2.3-12.2 1.1-9.6.2-10.8 4.8-11 4.1-4.4 3.2-3.4"/>
<path d="M762.5 413.9l13.7 1.7 10-1.5 11.9 1.7 9.5 6 .9 10.8 1.4 11.8 0 11.4-4 9.5-10.8 3.4-13 1.6-12.1-1.1-9-1.9-6.4-9 .8-12.5-1.3-12.3 2.7-11.4 6.4-7.7 4.6-5.6"/>
<path d="M830.8 415l13.2 0 8.9.7 12.9-.9 8.3 5.8 2.9 9.5.6 10.3-1.2 12.7-2.1 9-7.3 7.6-9.8.4-12.3-1.6-12.7.2-9.5-6.3.3-14.7-.4-10.9.7-10.6 6-7.1 1.7-3.4 2.7-5.4"/>
<path d="M900.4 415.1l11.2-1.3 9.6 1.9 13.6-1.7 7.7 8 3.5 10.7.3 11.2-.8 11.5-5.8 10.8-9.7 2.7-13.1 1.1-12.2.1-8.4-5.5-6.3-8.5 1.2-13.1-.3-13.4 3.7-9.9 4.9-5.5 5-5.5"/>
<path d="M967.5 416l10.3-.5 11.3-1.4 13.3.6 7.1 5.8 4.6 8 0 12.4-.5 9.9-2.2 11.7-10.2 7.3-10.1-1.8-11.3 1-10.3 0-7.5-6.5-3.8-12.3-.3-9.5 2-11.1 1.8-10.5 5.1-5.5 4.7-4.9"/>
<path d="M1035.4 415.3l13.2-1 11 .4 12.2 1.2 9.2 7.3 1.1 11.1-1.2 11.7.1 10.9-5.4 8.1-9.9 4.6-12-1.2-10.4 0-10.9-3.2-5.5-9.2.6-12.4 0-13.3 2.4-9.4 4.6-5.4 4.1-4.6"/>
<path d="M1104.5 415.2l9.7-.3 11.2-.2 12.1-.8 9.5 6 2.3 12.1-.5 11.3 0 10-1.8 10.1-10.8 4.7-12.1.2-12.3 1.4-12.2-3.5-5.9-9.6 1.8-10.3-.3-11.2.4-11.7 8.5-9.3 4.8-5.1"/>
<path d="M1171.1 415.1l10.8.6 13.1-2.1 11.7 2.4 9.9 5.7.3 13.9 1.4 11.6-1 9.7-6 8.4-10.9 4.1-10.4.6-12 .3-8.9-4.1-5.1-7.1-2.1-11.3 1.5-11.5-1.6-10.4 7.5-7.9 2.3-2.2 5-4.9"/>
<path d="M1239.2 414.9l11.8.7 12.1-.5 11.4-1.2 6.5 5.6 3.6 12-.3 12.7 1 10.5-3.1 8.3-10.4 5-11.4.5-12.1 1.8-9-.9-8-10.3-.1-10.3-1-10.1.9-10.4 6.3-11.3 2.2-2.2 5.5-5.5"/>
<path d="M1308.7 414l11.1.6 10.6 1.3 12.5-1.8 7.9 8.1 2 8.8-.6 10.3.9 11.6-1.7 10.3-8.5 5.6-10.8-.5-13.8.7-11.1-.3-8.7-8.4.7-8.7-1-13.4.3-9.9 5-9.1 3.8-4.8 4.1-5.3"/>
<path d="M1376.6 414.7l10.3-1 11.4 2.2 10.2-1.5 9.4 5.8 3.8 9.7-.3 11.8-.8 11.7-1.6 10.3-8.9 6.1-11 .2-10.4 0-13.9-.1-8.9-9.3 1-13.6-1.2-12.1 1.4-10.5 7.1-8.7.2-1.3.8-5.2"/>
<path d="M1443.7 414.2l9.4-.5 13.5.7 11.4 1.2 7.5 4.1 4.6 11.2-1.9 12.1-.1 11.1-3.6 11.7-9.7 2.8-10.1 1.6-13.5-.2-10.9-2.4-5.3-11.1-1.3-11.9 0-12.2 3.2-9.7 6-8.1 3.8-5.2"/>
<path d="M1511.4 414l13.4.4 10.9-.7 10.6.6 6.7 6.2 3.1 9.9 2 13.3-2 14.3-5 7.1-7.8 4.2-11.8.3-10.9.1-12.3-3.5-6.1-8.2 1.6-11.5-.4-13.3 0-11.8 9-7.5 5.9-4.9"/>
<path d="M16.1 481.7l12.7 2.2 10.5-1.1 12 0 9.9 9.8-.1 11.7-.8 10.1.7 12.1-7 7.6-11 2.4-11.9.2-13.8-.3-8-5-2.9-8.5-.5-11.9 1.6-12.3.9-9.6 6.7-7 4.1-4.3"/>
<path d="M83.9 483.1l9.2-.7 11.1.3 11.8.4 10.9 5.6 2.3 11.5-.8 12 1.6 10.9-4 8.6-9.3 4.7-11.1.2-11.7-.5-11.2 1.1-7.7-8.4.6-10.8-1.3-12.7 1.6-9 5.1-11.3 2.4-2.1 5-4.3"/>
<path d="M151.6 482.3l11 1.4 12.6-1 11 .8 9 6.1 2.1 9.1-1 10.2.9 10.1-1.6 11.6-8.6 5.8-13.6 1.8-9.7-1.5-11.5 1.6-6.2-6.8-4.3-10.5.9-10.8.8-11 1.8-9.4 5.3-7.6 3.6-5"/>
<path d="M218.4 483.7l11.2-.3 13.3-.3 12.7.1 6.7 6.6 1.8 7.4 2.2 11.1-1.3 11.5-2.5 11.4-7.7 6.5-13.3-.7-11.4-1-12.4-.1-5.9-6.8-2.2-11.8.7-11.1 1-10.9 6.1-8.5 3.1-4.2 2.8-3.7"/>
<path d="M288.2 482l8.8.9 13.4-.9 11.9-.2 7.2 5.6 3.1 13.2-.3 10.3.1 12.9-4 10-12.4 3.8-9.5-1.4-13 .9-8.3-3.1-6-8.5-.1-11.8-.3-13.1 2.3-11.9 5.8-5.2 5.3-4.8"/>
<path d="M356.4 483l10 .3 9.5-1.5 12.6.4 10.1 5.3 1.5 10.3.9 11.5-.1 9.9-1.8 11-9.1 7.2-12.9 0-11.5-.4-10.5.6-9.2-9.3.2-11.6.4-11.4.2-12.6 8.1-9.1-.5-.2-6.5-2.2"/>
<path d="M424.4 483.6l9.5.2 12.6-1.4 12.3.5 7.3 6.1 2.2 10.4 1.3 12.3-1.4 11.9-1.3 9.1-11.8 4.5-10.7.3-12.6 0-9.8-2.5-6.4-8.4-.5-9.1-.1-13.8-.5-11.1 7.8-6.9.2-3.8.3-4.8"/>
<path d="M492.2 482.3l11.2.7 9.2-.1 11.8-1 9.1 6.6 3.8 8.4.4 12-.6 11.4-3.9 12.2-10.3 5.8-10.7-.8-10.1.8-10.5-1-8.4-9.5 0-10.7-.9-12.5-.4-11.5 9-7.6 1.5-2.8 3.2-5.5"/>
<path d="M560.3 483.8l12-2.2 10.4.6 11.4.6 8.7 7.3 1.6 10.2 1.7 11.6-2 10.4-2.9 10.9-8.9 2.9-12.4.9-11.4.9-11.6-2-5.5-8.5.1-10.4.4-12.7-2.2-12.3 9.4-9.3 4.1-4.1"/>
<path d="M628.3 482.1l11.1 1.7 11.9-2 10.7 1 9.9 6.7 1.3 10.9-.8 13.1-.1 12.3-4.3 7.8-10.6 3.2-13.7-.3-9.3.1-8.6-1.4-7.4-7.7.9-9.3-.7-12.1 1.4-12.5 4.9-9 2.2-.8 4.5-1.9"/>
<path d="M694.7 481.8l13.9 2 12.5.1 11.2-2.3 6.4 8.6 1.8 8.4 1.6 13.4-.7 10.7-4.6 10.4-11.7 5.1-11.3-.8-10.8.1-11.2-4.5-4.5-9.9.6-10.5-.6-13.2 1.5-10 6.1-5.8 4.1-3.9"/>
<path d="M764.3 483.2l10.6.6 11.7 0 13.1 0 7.4 6.6 2 10.8.6 13-1 10.6-4.4 8-8 4.9-11.6-.7-11-.7-11.4 1.3-5.8-7.7-.7-10.6-.2-12.3-1.1-13.7 7.4-8.7.7-1 3.4-4.2"/>
<path d="M830.6 483.2l10.8-.1 10 .1 11.8-1.6 9.3 5.4 3.5 8.7 1 10.8 1.1 13.3-2.4 9.4-7.4 7.2-13.1.9-13.1 1-12-1-7.8-8.7-.5-11 1.1-8.9-.1-12.3 4.1-8 5-4.9 3.5-3.5"/>
<path d="M900.7 483.5l9.1-1.6 12.9 1.4 14.3-.1 7.6 7.4 0 13.1 1.3 9.8-1.1 12.3-4.6 6.1-9.5 5.7-11.1.2-10.5.4-10-3.6-8-8.9.2-10.4 0-11.7.6-10.6 4.2-7.4 3.9-3.1 3.5-2.7"/>
<path d="M967.9 482.7l9.7.8 13.4-1.4 11.2 1.1 7.9 5.2 3.8 10-.8 10.8 1 10-2.5 9.6-6.5 7.6-13.6-.1-10.4-.1-10.2.8-8.6-6-4.6-9.6 0-13.9 2.3-8.9 2-12.3 6.5-3.2 5.7-2.8"/>
<path d="M1036.5 482.2l11.6.8 12.5-.1 10.8-.2 7.6 6.5 2.5 12.6-1.2 13.8.4 9.7-5.5 8.4-10.3 3.9-11-.3-9 .1-11.8-.7-7.4-9.9.8-13.2-.9-9.6 1.9-13 6.9-8.7 4.8-5.9"/>
<path d="M1103.3 482.1l10.4.5 11.4-.4 13.7 0 9.3 7.8 0 9.3 2.2 13-.6 11.4-2.4 8.3-10.4 5.3-11.1.1-8.9.6-12.9-1.1-8.7-8.1-1.7-11.1.8-10.8 1.3-11.3 6.7-9.7 2.2-3 3.4-4.5"/>
<path d="M1171.7 482.6l11.4-.9 10.2 1.4 13.2-.7 7.4 6.5 4 11.6-.5 11.1-.6 12.1-3.6 9.9-12.7 2.4-10.1 2-14.4-1.3-9.2-4.5-5.1-10.7 1.5-10.7-.1-11.8.8-7.9 7.9-8.8 4-4.4"/>
<path d="M1238.4 483.4l11.2-1.3 9.7-.2 13.9 1.5 7.8 4.4 5 9.1-.4 8.5-.7 12.5-2 11.8-7.3 8.3-12.3-1-11.5 0-12.5-.5-5.7-6.9-1.8-11.7-.8-9 .5-13.2 4.4-8.3 2.5-5.2 2.6-5.5"/>
<path d="M1306.5 482.9l11-.2 14.6-.2 10.9-.8 7.5 6.3 3.1 12.9.2 12.6-1.7 11.2-5 9.2-10.7 3.1-10-.4-12 1.1-9.6-2.8-6.2-11.9-.6-12.7 1.3-9.6 1.5-11.2 7.5-7.3 2.9-2.9"/>
<path d="M1375.2 483.7l12-1.9 10.3 1.4 11.7-1.6 10.1 7.7 2.3 9.4.5 13.2.2 10.7-4.8 8.2-9.2 6.9-13.1-1.2-8.7.3-11.8-.9-7.8-6.5.7-11.3-.8-11.8-1-13.5 7.6-7.7 1.5-2.5 2.1-3.6"/>
<path d="M1444.3 483.6l11-.5 10.3-.6 11.2 1 7.8 3.5 5.3 11 0 11.6-1.4 13.2-3.1 8.2-8.2 5.2-9.5.9-12.9 0-9.9-.7-7.8-4.9-2.2-13.4-1.1-10.6 1.5-12.3 4.9-9.1 2.3-2.6 4.1-4.5"/>
<path d="M1511.1 483.2l12.1.3 11.8-.8 11.2.4 11.2 8.1-.8 13 .8 11.3.1 10.6-8.4 8.5-8.8 1.9-8.6 1.4-13.1-1.1-11.3-4.1-3.8-8.5-1.6-10 1.5-12.8 1.8-12.2 6.2-7.2 2.6-3.2"/>
<path d="M14.6 551.3l10.9-1.5 13.7.3 12.1 1.4 7 5.7 3.5 10.7-.3 13.8-.1 10.1-5.6 11.4-12.8.9-12.9-.1-9.7.4-11.2-5.1-3-9.6.3-10.5-.3-11.2 3.6-10.6 6.8-5.8 5-4.2"/>
<path d="M82.5 551.9l11.5-.2 12.2-1.7 13.8.9 8.7 8.6.2 9.7 1.3 9.9-2 12.8-4 8.2-9.1 6.2-12.3-.8-12.4-.7-9-1.1-7.1-8.5.2-12-.3-12.8 1-8.7 8.6-10.1.6 0 7-.5"/>
<path d="M151.3 550.4l11.4.4 13.2-1.2 12 .3 8.4 8.8.6 10.4.5 11.8-.4 12.5-5.3 8-8.3 4.7-12-1.5-12.4-.2-10-2.8-6.1-6.5-.1-12.3 1-13.9-.6-9.6 7.4-7.9 4.1-4.5"/>
<path d="M219.5 550.3l11.4 1.1 12.2-.2 11.8-.1 8.3 8.3 2.7 8.3-1.2 12.3-.6 9.4-1.8 9.8-9.4 7-11.7.2-10.8-2.2-12.5-.7-6.1-7.2 0-12.7-2.2-10 .4-11.1 8.4-8.3 1.4-3.9 1.9-5.2"/>
<path d="M288.4 550.7l11.8.5 11.2-.3 10.6-1.2 10.2 8.5.6 12.6 0 12.5 0 11.2-4.2 6.5-10.2 5.2-11.4-1.4-11.4.3-11-3.2-6.4-7.3-.3-13.8.5-10.1-.2-11 10.4-8.3 5.4-4.3"/>
<path d="M354.7 551l13.3-1 11.5.1 12.4.4 7.3 8.3 1.4 10.9.8 10.2-.4 12.4-5.4 10.5-9.4 1.9-11.6 1.6-11.8 0-9.3-3.8-6-7.5-.3-13.8-.1-10.3-1.3-10.8 7.2-7.6 2.8-1 6.7-2.5"/>
<path d="M423.3 550.6l12.3.9 10.4.1 11.4-.8 7.9 4.4 4.7 10-2 12 1.1 11.7-2.8 11.3-10.6 4.4-10.1-.2-13.5.9-12-1.3-5.1-10.3-1.3-10.7 2.3-11.2-.5-11 6.3-8 1.7-2.9 2.6-4.4"/>
<path d="M490.5 550.6l12.2-.2 11.5.5 11.4-.6 7.3 7.1 3.9 7.2.3 11.9-.2 11.7-2.4 11.4-9.2 5.9-13.5-1-10.9 1.3-12.3-2.7-6.5-7.5 1.9-12.3-2.2-12.2 1.6-13 7.9-7 5.6-4.9"/>
<path d="M558.6 550.7l13 .3 12.7-.1 10.7.9 8.8 6.5.4 8.8 1.3 12-1.1 14.3-6.8 8.9-10.4 1.8-10 2.1-10.4-.2-11.3-3.6-5.6-10 .9-13 .2-11.6 2.3-11.5 5.7-5.8 2.8-2.9"/>
<path d="M627.4 549.8l11.2 1.4 12 .2 9.9-.1 9 4.3 3 11 .7 9.7.7 14.3-3.8 10.2-9.7 4.2-12.1.3-11.5 1-12.4-4.7-5.4-5.7.9-14.2-1.1-12.9.7-10.6 8.1-7.7 4.5-4.3"/>
<path d="M696.1 551.5l9.7-.9 13.4.6 11.6-1.4 7.6 8 3.1 11-.4 11.4-.7 12.9-5.4 9.6-9.5 3.6-14.6-1.3-11.8 0-8.8-5.6-4.7-7.9 1.1-12.4-.1-11.3 3-10 5.5-5.8 3.8-4.1"/>
<path d="M762.9 550.8l12.9 1.1 11.7-.3 10.6-.5 10.5 7.1 1.2 10.4 0 11.9-.3 11.2-5.3 9.3-8.3 4.6-14.6-1.5-12.4.7-8.4-2.7-5.3-9.5-1.3-13.2.5-9.5 3.1-12.7 4.9-6.6 3.4-4.5"/>
<path d="M830.4 550.2l13.1 1.8 10.5-.5 13.7.2 9.4 6.5 1 9.5-.2 10.6-.3 11.3-2.2 10.7-10.8 4.9-11.1-.1-11.4-.2-11.7-1.1-8.5-9.5 0-10.6.7-8.5.4-12.3 4.3-9.2 4.3-3.8 5.8-4.9"/>
<path d="M899.2 550.8l13.6-.2 10.5.2 10.9-.4 7.9 6 4.2 11-1.3 11.9 1.1 11-5.7 11.3-11.8 3.6-11.5 1.2-11-.9-11.2-5.1-4.1-10.6 1-12.1-.2-13.8 3.9-9.1 3.7-4.8 4.3-5.5"/>
<path d="M966.9 551.3l11.7.4 11.9-1 12.4-.2 8.8 8.4.5 9.2.9 13.6.8 10.3-6.2 10.7-9.3 3.6-12.5-1.7-11 .3-9.4-1.4-7.8-8.2 1.2-10.3-1-12.2.2-11.3 7.6-10.3.7 0 7.9.4"/>
<path d="M1035.8 550.8l10.3-1.1 12.4.9 11.6.5 9.1 6.3 1.9 10 .6 13 .5 9.4-4.6 10.2-12.9 4.6-10.4 1.2-11-1.1-11.6-4.6-3.8-8.9-1.3-11.5-1-11.2.8-9 8.8-6.7 1.3-3 1.7-4"/>
<path d="M1102.4 550.9l11.6.7 13.5-.5 10.5.1 9.2 7.5 2.9 10.4.2 12.6-1.4 11.7-2.8 8.3-10.2 4.4-13.7-.3-9.3.5-12.7-3.8-4.7-7.7-.1-10.6.4-10.6-.2-11.5 4.9-8.4 4.1-3.2 5.7-4.4"/>
<path d="M1171.5 550.5l11.7 1.4 10.2-1.2 12.5-.9 7.6 6.3 3 12.1 1.4 11.5-.3 13.6-4.6 7-9.3 5.1-12 .1-10.5-1-10.6-1.7-6.7-9.8-1.1-12.1.9-11.6 1.4-11.9 6.3-6.2 4.5-4.5"/>
<path d="M1240.4 551.1l11.4.7 8.8-1.3 13.6.9 7.6 4 3 11.6.1 12.1.3 10.6-4.4 9.8-7.8 4.6-10.2 0-8.9 1-12 .6-10-8.1-.3-11-.3-10.2-1.5-11.8 6.8-9.8 2.7-3 5.1-5.4"/>
<path d="M1306.7 551.3l12.4-.8 9.4.6 11.2-.5 9.1 5.1 3.3 9.8 1.3 9.9-.5 12.9-2.4 10.8-7.4 5.4-12.9-.4-10.6.4-10.9 1.8-7.2-8.5-3.8-8.3.7-14.1 1.2-11.3 2.8-8.5 6.2-5.8 4.6-4.2"/>
<path d="M1375.3 551.3l11.1-1.7 10.1.6 12 1.6 8.4 4.6 4.2 11.1.6 10.2-1.5 13.4-3.2 10.5-10.8 3.4-9.8.2-10.1-.7-10.9.7-9.2-7.7.9-12.9-.1-9.9 0-11.2 5.5-11.3 3.6-1 6.2-2"/>
<path d="M1443.5 551.3l12-1.4 11.2 1.8 8.9.1 10.5 2.6 4.2 10.4-1.9 13.1 2 11-2.7 8.5-8.9 8.6-10.4-.6-11.8-1-12.4.1-9.9-7.2 1.2-11.9-1.4-11.7-.1-10.7 6.6-8.3 2.3-4.1 2.8-4.9"/>
<path d="M1510.5 551.7l13.7.1 10.6-.7 12.9-.8 6.2 6 2.2 11.8.8 11.1.9 12.3-6.3 10-10.1 4.5-11.2-1-11.3.5-9.7-3.5-7.2-6.6 1.2-12.2 0-10.5-.9-11.4 9.2-10.8 4.1-4.8"/>
<path d="M15.2 619.3l12.8-.1 9.5-1.1 12.2 1.3 10.5 6.4 2.1 12.2-.1 12.6-1.9 12.2-4.8 8.5-8.6 2.8-12.1.1-9.5-1.9-10.1-.5-7.2-6.8-1.5-12.5-.6-10.4 1.1-12.9 8.3-10.5-.5-.3-3.6-2.7"/>
<path d="M83.8 618.2l11.6-.1 11.8 1.7 12-1.2 6.9 5.5 2.4 10.4.5 11.9-.1 10.8-5 11.6-9.9 4.6-10 .1-10.8-.1-10 .3-8.6-8.5.2-11.7-.4-10.3-.4-13.1 7-8.5 2.7-3.4 3.3-4.2"/>
<path d="M152.4 618l10.1-.4 12.4 1.4 10.6-.2 11.1 8 .9 11.1-.5 11.2-.8 10.4-4 10.6-9.1 3.7-12-.1-12.7.3-10.5-4.2-4.6-9.7-.1-12.4-1.5-11.1 3-10 6.1-7.2 3.3-3.9"/>
<path d="M219.2 618.5l10 .2 11.6 1.3 13.4-1.4 8.2 6.5 3.6 14-1.1 10.1.1 10.3-4 8.8-9.1 5.5-14.2.6-10.7-.9-9.2-2.2-7.2-8.1-.7-14.1.8-9.6-.6-12.3 8.1-6.6 1.9-.7 3.8-1.4"/>
<path d="M286.4 617.7l13.3 1.4 11.5.6 11.4.2 10.7 7-.8 10.9-.1 13 1.2 10.5-5.1 8-11.9 4.9-10.2-2.2-10.5 2.1-13-4.8-5.1-9.7 1.7-11.2 0-11.2 1.4-12.2 5.5-5.7 4.9-5.2"/>
<path d="M355.8 619.5l10.4.3 11.7-1.3 12-.8 9.3 7.9 3.1 8.4-.7 12.1-.6 12.7-3.9 9.1-10.2 5.4-10 .2-13.9-.4-7.6-1.1-8.3-9.3-1-12.7 1.7-8.5-1.4-13 8.1-7.3 1.5-2.1 4.6-6.4"/>
<path d="M423.2 619.9l10.2-.7 15 .1 8.3-1.1 10.2 6.4 1.7 9.8.7 12.9-.3 9.3-2.4 9.7-9.5 5.8-9 1.7-11.1 0-10.7-.9-8.4-5.5-3-11.8.6-12.3-.5-10.9 5.3-10 3.8-2.5 5.8-3.8"/>
<path d="M491 619.9l12.5-1.1 12.3.5 10.6.2 7.9 3.1 3 11.4.8 11.3-.5 12.1-3.2 11-12.1 4.3-12.8-.4-10.8.7-8.4-1.8-6.6-9-1.8-8.3.2-13.3-.4-8.9 5.8-10.4 3.3-1.4 4.8-2"/>
<path d="M558.5 620l11.7-1.1 11.5-.8 10.7.8 8.9 3.8 3.4 10.9.6 12.1-.8 9.2-1.7 12.7-9.5 4.9-12.4 1.1-9.2.5-12.1-.7-8.5-6.6-1.4-12.7.5-12.8 1.8-10 4.3-9.8 2-3.9 2.4-4.6"/>
<path d="M627.9 619.8l10.8-1.5 10.1-.5 12.4.3 8.9 7.6 3.1 8 .5 13.6-1.3 9.7-1.7 11.1-7.9 4.2-12.8 1.4-11.5-1.3-11.1.5-8.4-8.6.4-13.4.2-13.4 1-11.1 6.6-7.1 5.2-5.6"/>
<path d="M696 618.7l10.5.6 9.4 0 11 .2 10.9 5.6 4.1 10.9-1 11.9-.7 11.6-3.8 10.4-10.6 2.7-12.6.1-10.8-.5-10.4-2.9-4.9-8.5.2-11-1.2-13.2 1.7-11.5 6.8-6.9 3.6-3.5"/>
<path d="M763.1 617.6l12.7.7 9 0 13.7-.3 7.4 7.2 4 9.5-.3 10.9-.3 10.2-3.5 11.8-9.8 5.4-12 .3-10.3-1-11.8-1.1-6.4-6.9.4-11.1-2-13.7 1.8-10.8 6.5-8.7 1-2 2.8-5.3"/>
<path d="M830.9 618.8l10.4 1.1 11.8-.9 12.5-.7 9.6 8.1 1.4 11.1 1.3 12.3-1.5 13.2-6.6 9-11.1 2-10.9-.8-11.6.6-7.3-3.9-6.6-10 .5-10.8.9-11.3-.2-11.5 6.8-7.6 4.9-5.5"/>
<path d="M898.8 619.5l12.8-.4 13.9-1.2 9.4 1.9 6.9 5.9 2.2 9.2.3 11.6-.1 8.8-.9 11.1-7.2 6.5-12 1.2-12.7.1-12.1-.3-7.9-9.3-.6-13.1-.9-11.6 1.1-9.1 7.8-10.5-.3-.8-2.2-5.9"/>
<path d="M968 619.8l9.7-1.1 12.6-.7 12.5.3 7 6.9 2.3 10.8 2.2 12.3-1.9 9.3-4.5 12.1-9.6 2.5-12 .3-13.3.8-11.3-5.7-2.5-7.7.1-12 .1-9.9.7-10.9 5.9-7.9 2.4-3.3"/>
<path d="M1034.4 618.8l13-.2 12-1 11.2.7 8.5 8.2 3 11.7.1 11.6-1.3 11.5-4.8 9.7-12.2 2.5-10.1-.6-12.1-.6-8.9-2.6-5.8-10.7-.2-12.5 1-9.2 1.1-12.2 6.1-5.4 5.8-5.2"/>
<path d="M1103.5 618.4l11.1 1.5 11.5-1.3 13 .1 7.8 5.5 2.1 10.5-.1 12 .3 13.3-4 8.3-7.5 4.5-11.2.4-11.7 1.2-9.6-1.8-10.3-6.3-1.1-12.7 1.3-12.2-.2-10.8 4.5-9.6 4.1-2.8 5.5-3.8"/>
<path d="M1170.5 619.9l11.9-2.1 12.3 2.1 11.6-1.4 9.4 8.2 1 8.6.6 10.2-.1 12.8-2.6 10.1-8.1 5.4-12-1-12.6.6-10.6.4-8.5-8.9.1-9.7-.9-11.8 1.7-14.4 5.1-7.7 3.2-3.5 2.9-3.2"/>
<path d="M1239.6 619.1l10.9 0 12.1-.6 10.5-.8 8.4 5.7 4.6 11-2.1 10.7 1.7 10-3 12-6.5 6.3-12 .7-11.6-1.1-11 0-8.4-5.6-2.5-9.8-.3-9 1.2-13.8 3.4-9.9 4.6-5.3 3.8-4.3"/>
<path d="M1308.4 618.9l9.7-.9 11.1 2 13.3-1.2 7.2 4.7 3.9 12 .2 14.1.3 12.5-5.9 8.3-8.2 2.8-10.4-.4-10.7.5-10.7.6-9.4-10.1.2-12.3.6-11.2-1.5-12 7.8-8 .9-2 3-6.8"/>
<path d="M1376.2 619l12.6-1 10.4-.1 12.4 1.3 8.9 6.9-.3 12.2 2 11.6-1.1 9.7-4.8 9.8-8.3 4.3-11.7-.2-11.6-1.4-10.8-1.8-6.4-8.5-.7-10.7-.3-12.4-.4-8.9 8-9.1 2.4-2.1 3.3-2.9"/>
<path d="M1443.4 618l11.1.4 13.9.5 11-.3 9.1 8.4-.1 12.4-.1 10.7.6 10.7-5.3 9.2-10.8 4-12.1-.5-13.5.5-8.2-6.3-4.5-10.9-.6-12.8.4-9.9 4.4-10.8 4.3-5.2 3.6-4.6"/>
<path d="M1512 617.8l10.7 1.6 10.8.4 13.1-1.2 8.3 8 2 12.3-.5 11.3 1.3 11.6-6.6 8.5-9.7 2.1-11.4 1.2-13-1.4-9.2-3.8-6-8.8 0-14.2 1.3-9.8 2.5-10 5.2-6.3 4-4.8"/>
<path d="M15.5 686l13.6 1.6 10.6-.8 12.1.1 7.7 6.7 1.1 11.8 0 12.3.3 10.7-6 9.7-11.6 4-11.8-1.4-11.5.6-9.8-5.1-3.7-9.4-.6-11.3.2-10.5 2.6-10.3 7.8-8.9 3.4-3.9"/>
<path d="M83.4 686.8l11 1 10.6-.5 11.7-.2 8.1 3.4 3.4 11.6.4 10.5 1.5 9.9-3.1 13.3-9.1 4.6-13.4.9-9.6 1-11.3-2.2-8-8.1-1.5-9.1.8-13.6-.4-10.3 5.5-9.4 3.9-2.4 6.3-4"/>
<path d="M150.9 685.8l10.2.8 13.4 1.4 11.2-.2 7.1 5 4.6 11.2.2 10.2-.9 11.7-1 8.5-9.7 7.8-12.6-.7-12.4.7-10.3-3.5-8.4-6.5-.4-11.6 2.1-9.2-.1-13.8 3.4-8.1 3.9-3.1 4.9-3.9"/>
<path d="M220.2 687.7l9.6 0 12.6-1 11.2-.8 8 6.2 4.5 10-1.3 12.3.6 13-5.4 10.7-9.5 2.9-11-.4-11.8 1.7-11.4-3.1-6.4-10.2 1.8-9.4-2.1-10.6.7-12.4 8.7-8.6.4-.2 4.1-2.3"/>
<path d="M287.1 686.3l12.1-.1 12 .8 11.6-1 7.7 9.2 3.5 8.7-1.9 12.3 1.2 11.8-4.4 9.6-11.8 4.8-9.6-.3-11.3-1.7-11.6-1.5-6-10.6.2-12.6.4-11.5 1-9.2 7.5-9.3 3.8-4.7"/>
<path d="M354.8 686.1l12.5.7 11.7-.9 14.4 1.8 6.1 5.6 1.5 11.2 1.2 11.4-.5 11-6.3 9.8-10.3 5.2-11.7-.8-12.8.9-10.4-5.7-3.3-10.5 1-12.7-.3-10.7 3.6-10.8 5.2-4.4 5.1-4.4"/>
<path d="M423.3 686l13 1.2 10.5.2 13.9-.4 8.3 9.2.4 9.1 0 11.5-1 12.3-3.7 7.5-11.4 4.4-10.7-.1-10.5.8-11.9-2.3-5.8-8.6 1.3-11.1-.5-12 0-11.2 6.7-9.1 4.4-5.9"/>
<path d="M491.5 687.2l12.9-.2 9.7 0 10.4-.8 10 6.3 3.1 13.2-1.6 8.6 1.6 11.6-3.8 11-8.8 4.7-9.7-.7-11.8-.7-10.6 1.1-8.7-7.8-1.2-9.6-.3-10.6-.2-12.4 5.4-11.1 4.1-4 3.4-3.3"/>
<path d="M558.6 685.7l11.2 1.9 11.4.3 9.8-1.1 10.6 5.4 3.9 9.6.5 11.2-.7 12-2.5 9.8-11.5 7.1-11.4.4-11.2-.4-11-2.1-7.7-10-.3-11.8 0-13.5 2.6-10.5 6.7-6.5 4.1-4.1"/>
<path d="M627.5 687l10.2-1 11.4.2 13.3 1.2 6.5 5.9 4.2 8.9 1.2 11-2.1 10.7-2 10.6-6.4 6.2-11.4-.1-10.3-.6-12.4 1.7-9-7.7-1.9-9.3-1.1-12.6 1.4-10.2 5.1-11 4.5-4.4 4.2-4.1"/>
<path d="M696.2 687.7l11-.5 12.5-.8 10.1.4 9.4 6.2 2.1 10 1 12.6-1.2 10.7-3.5 10.6-9.1 4.8-11.5-.2-11.2.7-10.7-1.7-7.1-7.3-2.1-12.6 2.1-8.7-2.3-13.7 6.5-7.4 3.7-3.3 4.8-4.3"/>
<path d="M764.6 686.8l9.9-.8 13.6 1.5 11-.2 9.3 6.9.1 11.6.1 11.5-.2 10.5-3.9 8.9-10.5 4.4-13.4-.5-11.4 1.6-9.3-5.5-4.2-11.9-.3-11.9.4-12.1 3.3-10.2 3.9-4.3 4.2-4.7"/>
<path d="M831.5 686.3l9.7.6 12.9.6 10.2-1.1 10.3 6.4 3.2 7.8.1 12.3-.4 10.5-3.5 11.4-7.3 6-13.3 1-11.1-.8-11.3-.9-6.9-5.3-.1-13.9-1.3-12.2-.3-9.8 6.7-8.1 1.8-4.2 2-4.4"/>
<path d="M898.7 687.4l11.1.3 11.7-2 10.8 1.5 9.4 6.8 2.6 11.9.4 9.6-.5 11.8-5.7 10.7-12.3 3.5-10.6-.5-13.1-.5-10-4.2-1.1-10.5-1.1-13.3-.6-11.2 3.4-9.4 6.6-4.5 6.2-4.2"/>
<path d="M966.9 686.7l12.5.5 11.6-1.4 10.8.4 9.6 6 2.8 11.5-1.6 12 .8 12.1-4.4 8.1-10.1 5.4-8.8.6-12-.7-10.6-1.3-9.1-7.4.6-11.6-1.1-10.7.7-10.2 5.4-8.1 3.6-4.9 4.6-6.3"/>
<path d="M1035.7 687.2l11.7-.1 13.8.4 10.9-.1 7.7 6.3 2.5 11.3 0 10.9-2.2 9.8-3.3 10.1-10.7 5.5-13.5 1.1-11.8-.4-9.7-6.6-5.3-7.7-.1-10.8 2-13 1.2-10.3 7.8-7.1 3.3-3.1"/>
<path d="M1103.6 686.4l11.4-.7 11.3 0 9.7 1.4 10.7 6.2 1.3 9.7 1.6 9.6.6 9.8-1.6 12.2-10.4 6.5-10.8.3-11.6.2-11.1-1.4-9.5-5.9-1.1-13.5.6-10.9.6-12.6 6.5-7.2 2.4-3.7 4.1-6.2"/>
<path d="M1172.1 686.9l11.8 1 10.5-.8 10.4-.7 8.1 5.3 4.8 9.8-1.5 12.2 2 11.7-3.4 8.8-6.9 7.9-12-1.5-11.9-.4-12.5 1.5-8.7-9.6.1-9.2.5-11.5.2-11.1 4.2-8.7 3.9-4.4 4.9-5.6"/>
<path d="M1238.9 686.6l10.8.8 12.3.4 13.2-.2 7.8 5.2 1.5 10.2.6 12-.6 12.3-3.8 10.1-9.8 4.6-10.2.1-13.3-1-10.3-3.8-7.1-9.1.8-10 1-12.4.7-12.2 6.4-6.8 5.1-5.4"/>
<path d="M1306.5 686.3l11.1.2 12.8.7 11.8-1.1 7.1 7.5 2.8 11 .1 10.8 1.9 12.5-4.8 6.9-9.6 6.5-11.8-.2-10.6.6-12.1-2.2-6.2-11.2.2-11.2-1.1-10 2.4-12.6 7.3-6.6 3.7-3.4"/>
<path d="M1376.5 687.5l8.8-1.5 12.2 1.3 12.6-1.7 8 6 3.3 10.5-1.3 12.7.8 11.3-2.5 8.7-8 7-11.7-.5-11.4-.7-11.3.8-8.8-8.5-1.1-11.9 1.6-10.9-1.5-11.7 6.4-9.4 2.8-2 6.3-4.3"/>
<path d="M1443.6 687.7l13.2-.8 12.3-1 9.5.3 10 7.2.1 11.9.7 9.4-1.1 12.3-3.2 10.2-9.3 3.6-11.9-.3-9.9 1-12.9-2.7-6.7-7.2 0-11-.5-12.9 1.1-12.7 7.8-7.2.3-.6 2.8-6.1"/>
<path d="M1510.6 687l12.7-.5 11.9-.4 9.9.2 8.5 6.2 4.3 10-.1 11.2-.5 11.2-2.8 11.7-11.1 3.8-8.7 1.4-12.6-.1-12-1.1-6.5-10.3.3-12.4-.6-12.2-.7-9.9 9.3-7.5-.9-1.6-2.1-3.5"/>
<path d="M16.6 753.6l11.9 1.9 10.7-.8 10.5.3 9.7 5 1 11.7 0 11.7 1.7 10-3.2 10-9.7 4.9-13.5.4-10.6 1.3-11.4-2.1-6.9-8.9.2-10.5.6-13.1-1.7-12.4 9.8-7.1 3.8-2.7"/>
<path d="M83.8 755l11-1.3 11.8.4 11 .4 10 5.4.9 13.3-.2 9.9 1 13.2-4 8.6-8.7 5.2-11.1-1.4-12.8 1.2-10.7-.2-6.7-8.8.2-12.4-1.4-10.5-.5-11.5 7.3-9 2.1-3 4.6-6.3"/>
<path d="M152.4 754.2l11.3 1.2 11.9.4 11.8-1.7 6.9 7.8 2.1 9.8-.4 13.8.7 11.2-2.3 7.7-9.7 4.2-12.2.1-11.8.5-11.1-1.2-6-8.7-.7-10.2.6-11.8-1-11.1 6-9 2-1.3 3.6-2.4"/>
<path d="M219.6 754l10.1 1.6 10.9-.3 10.8-1.1 9.1 4.7 4.2 8.9-.2 12.4.2 12.6-3.3 12-8.8 4.9-11.4-1.4-11 2-10-.5-7.6-7.5-1.9-11.3-1.1-11.1 1.4-10.7 3.3-9.6 4.1-4.3 4.8-5.1"/>
<path d="M287.9 754.2l12.7.9 11.3-1.4 12.4 1 7.1 6.7 1.4 11 .4 12.5 0 12.5-4.4 6.3-8.5 5.6-10.3-.4-12.5.7-10.9-.1-7-9.4-.4-12.8.6-9.5-1-12.3 4.4-7 3.3-3.1 3.5-3.2"/>
<path d="M354.5 755.4l13.9-.9 10 .2 13 .7 7.8 4.5 2.5 11.3-1.7 12.2 2.2 10.5-5 12-11.1 2.8-9.2.5-11.8-.8-11.9-1.1-5.9-5.8-.4-12.5.7-12.8-.1-11.8 7.9-8 .4-1.6 1.3-5.6"/>
<path d="M422.5 754.1l13.7-.1 8.9.3 11.4.7 11 6.8 2.4 9.6-.5 12.6-.1 9.7-4.1 10.3-10 5.4-10.3-.7-11.2 1.2-10.7-1.9-9-8.3.5-8.9.1-13.6-.4-10 6.4-9.1 2.4-3.8 2.6-4.1"/>
<path d="M492.2 754.2l9.5.4 11 1.1 12.8.3 9.5 5.9 1.5 9.2 1.3 10.5-.2 12.6-4.1 8.9-9.6 7.3-10.5-1.2-10.6.3-12.2-1-8.2-8.9.1-13.7 0-10.7 1.1-11.3 7.6-9.2.7-.2 4-1.2"/>
<path d="M559.9 754.4l11.6-.3 11.8.3 10.9-.2 8.4 6.3 1.9 13.1.2 11-.3 11.6-6 11.3-10.8 2.8-13.7-.3-10.2-.9-9.1-4.6-2.7-10.7-2.1-10 .3-13.9 5.4-11.4 3.4-3.4 3.5-3.6"/>
<path d="M627.3 755.5l11.5-1.6 11.3 1.2 11 .9 9.2 4.4 3.6 12.1-.1 10 .3 11.6-4.1 8.7-8.1 6.1-11.2-.2-11.4-.6-10.7 1.1-7.9-7.9-1.5-9.2-.6-12.6.2-10.2 3.4-7.9 6.3-5.5 3.6-3.2"/>
<path d="M694.9 754.2l12.4.5 8.3.5 11.5-.5 11.4 5.6 2.8 8.8-.3 13.1.4 11.7-4.7 10.7-9 4.7-12.4.8-12.8-.4-9.9-3.1-6.7-8.5 1.1-11.8-.9-11.5 1.1-10.6 7.7-7.8 0-1.1-.4-6.9"/>
<path d="M764.3 755.6l11.2-2 10 .1 11.4.8 10.6 6.6 1.8 9.7-.2 9.3 1.1 12.3-2.9 10.8-8.2 7-12.3.1-12.3-.4-11.6.1-7.7-8.6.4-10.6-1.2-14 .2-10 5.8-9.6 3.7-2.4 6.4-4"/>
<path d="M831.6 754.6l13-.7 9.9 1.3 12.9-.4 6.9 7.3 2.3 10.8.7 12.4.5 9.8-5.9 10-9.5 3.1-10.1 1.1-10-.1-11 .4-8.6-8.4-.4-12.7.8-9.6.8-13.3 6.1-8 1.2-2 2.3-4.1"/>
<path d="M898.5 755.1l12 .8 10.6-1.3 11.6 0 9.7 5.8 3.5 10.3-1.1 10.9 1.3 8.5-.8 11.1-9.6 8.4-12-.8-12.5 0-9.5-.1-8.4-5.3-3.4-11.3 1-9.6-.6-13.2 4.6-10.5 4.3-2.9 3.5-2.2"/>
<path d="M967.9 754.5l10.3-.5 10.1-.2 10.6 1.4 11.2 4.2 2.2 10.2 0 10.9 1.7 10.6-1.1 9.5-8.4 8.6-12 .4-10.3-.1-12.9.8-8.4-7.6-2.6-10.2-.4-10.1 2-10.5 2.1-10.3 5.8-6.8 2.9-3.3"/>
<path d="M1036.7 755.8l10.4-1.5 12.2 1.1 11.9-.9 8.9 7.5 1.7 11.9-.2 10.6-.5 9.4-3.3 11.3-8.2 4.9-13.7-1.5-10.9 1.1-11.4-2.1-7.9-7.6 0-10.9.1-12.2 0-11.3 6.1-8.6 4.2-2.5 6.1-3.8"/>
<path d="M1104.3 755.5l10.2-1.2 12.8 1.5 8.3-.1 10.8 5.3 1.9 7.3.3 13.3.1 11.3-2.3 9.6-9.1 6.8-10.3.1-10.5-1.3-12.7 1.6-6.5-7.9-3.6-11.8 2.2-8.6-.3-11.8 3.4-10.2 3.4-5.4 3.2-4.9"/>
<path d="M1171.5 755.9l10.9-1.6 12 .7 10.3.4 10 7.1 1.4 9.1 2.1 12.4-.9 12.5-3.6 7-9.3 4.9-14.3 0-10.9.8-9.7-3.3-7.7-10.1 1.6-8.8.1-10.7-.1-10.8 7-9.1 1.9-1.5 6-4.9"/>
<path d="M1238.5 754.8l12.4 1 11-2 10.8.1 8.7 6.6 2.6 9.7 1.4 13-.5 10.7-4.2 9.7-9 6.2-10.9-.7-11.3-.4-10.3 0-7.8-8.2-.8-9.3.5-13.7.2-11 4.6-9.1 2.5-1.6 6.3-4.1"/>
<path d="M1306.5 755.7l11-1.5 12.3 1.1 10.2.1 9.1 3.5 4.7 10.1-.8 12.1 1 10.4-2.5 11-8.7 7.9-10.7-.9-10.7-.2-11.4.5-8.1-7.4-3.1-9.1-.4-11.3.2-14.1 3.3-8.3 4.7-3.7 3.2-2.6"/>
<path d="M1375.6 753.8l11.8 2.1 10.5.1 11.4-.7 9 5.7 2.5 8.1.9 12.9-1.5 12.2-1.4 9.6-12 6-11.7-1.7-10.7.3-11.5-1.8-6.7-9.6-.3-8.5.3-13.4 1.1-10.9 7.1-9.7 4.4-5.8"/>
<path d="M1443.1 754.4l10.1 1 13.4-.7 10.8.4 9.4 4.3 2.2 10-.7 11 .5 11.6-3.1 11.1-7.1 6.6-12.5-1.6-12.1.5-8.2-.4-8.5-5.3-2.7-10.2 1-13.5-.7-11.8 5.7-9.7 3.1-3.4 3.2-3.3"/>
<path d="M1510.5 755.8l11.1-1.2 12.1.4 10.2.9 10.8 3.5 2.4 12 .8 10.1-.5 12-2.4 10.2-7.2 6.2-11.7-1.2-11.4 1.6-12.3-1.8-10-7 1.5-13.8-1.8-10.1-.2-11.6 7.5-10.1 2.2-2.1 4-3.9"/>
</g>
<g opacity=".26" fill="none" stroke-linecap="round" stroke-linejoin="round">
<path d="M1000.1 155l-1.7 2.2-1.1 1.3 1.3 1.7.9.3-3.5 2.2.9.6 1.1 1.3-1.5-.4-1.9 2.1-1.6.6.7-.4-.6 3.5-4.8-.8.2-1.1.9-.5-3.9 1.8 0 .5-1.7 0 .2-.5-3.8.5.2-2.5-.7.4.2-3.2-4.7-.6 2.7.2-4.5-2.3 1.6-.3-1-1.2-.4-1.9 1.4-.4-.3.7-3.4-1.4 14.8-1.6 12.6 2.2" stroke="#b197fc" stroke-width="1.6"/>
<path d="M998.7 184.8l1.1-.8-.9-2.5-4.5 1.9.4-3.1-2.3-.2 1.5-.7-2.1 1.6-3.2-.4.3-3.9-.4.6-1.6-2.9.4.3-1.2-1.7 1.3.7.1-2.7-.9 0-.5-1 2.3-1.7-2.7-3.7 1.1-1.6 2 .1-.4-.9.4 1.1 1.4-3.6 1.8 0-.2.9 1.7-3.8 2.9 0-1.7-.4.8-.4 3 .9.6.5 1.5 10.9-.1 14.7" stroke="#b197fc" stroke-width="1.6"/>
<path d="M973.3 182l.8.3-.3-2.7.6.9.8-1.6 1.4-1.8-1.2.7.1-3.8 2.6.5-1.5-.3 2.8-3.1-.2 1.5 2.8-1.5-.9 1.2.8-1.9 2.8-1.8.6 3.4 1.6-1.4 1.6-.6 2.5 2.3 0-1.2 1.1 0 1.5.6-.8 1.3 1.4.5 1.1 2.1 1.6 1.4-.4-1.1 2.7 1.1-.1 2 0 1.3 0 .6 1.6 4.1-15.4-3.3-12.7.3" stroke="#b197fc" stroke-width="1.6"/>
<path d="M973 155.8l-.6.3 1.4-.6 1.7 2.4 3.5 1.2 1.6 0 .5.4 1.4.5 0 .8 1-.9.9 1.7.3 2.4-.3-.9 1.6 4.7-2-2 1.1 1.2.7 4 .3-1.6-1.9 2.9-.3 0 2.1 2.4-2.1.3 1.2 3.1-.9-1-3.2.4-1.3 1.1 2 3.2-3.4.2.7-1-4 1.1-.1-.6-1.3 1.5-.5-.6-1.8-11.3 2.1-15.6" stroke="#b197fc" stroke-width="1.6"/>
<path d="M89 699l13.4 1.3 13.9-1.3.2 14.6-1.7 15.1-13.3.3-14-1.2 1.3-12.9-.7-14.4" stroke="#74c0fc" stroke-width="1.6"/>
<path d="M96.2 707.4l5.7 1.7 6.2-2.3-1.1 5.9-.3 8.7-5.7-1.1-4.1 1.3-2.9-7.8.5-4.7" stroke="#74c0fc" stroke-width="1.6"/>
<path d="M1313 155l13.4 1.3 13.9-1.3.2 14.6-1.7 15.1-13.3.3-14-1.2 1.3-12.9-.7-14.4" stroke="#ffd43b" stroke-width="1.6"/>
<path d="M1320.2 163.4l5.7 1.7 6.2-2.3-1.1 5.9-.3 8.7-5.7-1.1-4.1 1.3-2.9-7.8.5-4.7" stroke="#ffd43b" stroke-width="1.6"/>
<path d="M916.4 699.4l7 6.8 9.6 7.8-8.8 8.5-6.8 6.1-7.5-6.6-6.9-8 6.7-7.5 8.1-6.7" stroke="#ffa94d" stroke-width="1.6"/>
<path d="M916.4 706.9l5.4 4.2 2.6 3.2-3 5-4.1 2.9-5-4.7-2.9-3.8 2.8-3.4 4.5-5.1" stroke="#ffa94d" stroke-width="1.6"/>
<path d="M168.4 631.4l7 6.8 9.6 7.8-8.8 8.5-6.8 6.1-7.5-6.6-6.9-8 6.7-7.5 8.1-6.7" stroke="#b197fc" stroke-width="1.6"/>
<path d="M168.4 638.9l5.4 4.2 2.6 3.2-3 5-4.1 2.9-5-4.7-2.9-3.8 2.8-3.4 4.5-5.1" stroke="#b197fc" stroke-width="1.6"/>
<path d="M1108.6 496.5l-.6 7.9 1 10.3 0 9-.2 1 2.7 0 1 .2-.3-.3 2.1-1.8 2.3 1.1 0-1.2 2.9-.4 0 .2 1.5-1 2.3-.5-.2-2.4 2.1.1 1.8-.7.4-1.7 0-.2 1.8 0-.6-1.7 1.6-1.8 1.4.1.5-1.9-.4-2 2.5-.2-.7-2.1.7.4 1.2-2.6-.8-1.3 1.9-.1-1.3-3.3 1.8-1.2-.8-.6 0-2.7-8.6.6-10.4.3-10.2-.4" stroke="#74c0fc" stroke-width="1.6"/>
<path d="M932.1 223l-1.7 2.2-1.1 1.3 1.3 1.7.9.3-3.5 2.2.9.6 1.1 1.3-1.5-.4-1.9 2.1-1.6.6.7-.4-.6 3.5-4.8-.8.2-1.1.9-.5-3.9 1.8 0 .5-1.7 0 .2-.5-3.8.5.2-2.5-.7.4.2-3.2-4.7-.6 2.7.2-4.5-2.3 1.6-.3-1-1.2-.4-1.9 1.4-.4-.3.7-3.4-1.4 14.8-1.6 12.6 2.2" stroke="#69db7c" stroke-width="1.6"/>
<path d="M930.7 252.8l1.1-.8-.9-2.5-4.5 1.9.4-3.1-2.3-.2 1.5-.7-2.1 1.6-3.2-.4.3-3.9-.4.6-1.6-2.9.4.3-1.2-1.7 1.3.7.1-2.7-.9 0-.5-1 2.3-1.7-2.7-3.7 1.1-1.6 2 .1-.4-.9.4 1.1 1.4-3.6 1.8 0-.2.9 1.7-3.8 2.9 0-1.7-.4.8-.4 3 .9.6.5 1.5 10.9-.1 14.7" stroke="#69db7c" stroke-width="1.6"/>
<path d="M905.3 250l.8.3-.3-2.7.6.9.8-1.6 1.4-1.8-1.2.7.1-3.8 2.6.5-1.5-.3 2.8-3.1-.2 1.5 2.8-1.5-.9 1.2.8-1.9 2.8-1.8.6 3.4 1.6-1.4 1.6-.6 2.5 2.3 0-1.2 1.1 0 1.5.6-.8 1.3 1.4.5 1.1 2.1 1.6 1.4-.4-1.1 2.7 1.1-.1 2 0 1.3 0 .6 1.6 4.1-15.4-3.3-12.7.3" stroke="#69db7c" stroke-width="1.6"/>
<path d="M905 223.8l-.6.3 1.4-.6 1.7 2.4 3.5 1.2 1.6 0 .5.4 1.4.5 0 .8 1-.9.9 1.7.3 2.4-.3-.9 1.6 4.7-2-2 1.1 1.2.7 4 .3-1.6-1.9 2.9-.3 0 2.1 2.4-2.1.3 1.2 3.1-.9-1-3.2.4-1.3 1.1 2 3.2-3.4.2.7-1-4 1.1-.1-.6-1.3 1.5-.5-.6-1.8-11.3 2.1-15.6" stroke="#69db7c" stroke-width="1.6"/>
<path d="M1530.1 509.6l2.7-2.3 2.9-3 2.6-3.3 3.3-2.9 2.8-2.4 0 3.3 0 4 .6 2.9-.5 3.5-3.5.1-3.4.6-4-.6-4 .3" stroke="#b197fc" stroke-width="1.6"/>
<path d="M1530 509.7l-2.9 3.1-2.6 2.6-3.4 3-3 2.9-2.3 3 0-3.6-.7-3.7-.1-3.6.2-3.2 4-.2 4-.6 3.2.2 3.3.6" stroke="#b197fc" stroke-width="1.6"/>
<path d="M972.6 564.5l-.6 7.9 1 10.3 0 9-.2 1 2.7 0 1 .2-.3-.3 2.1-1.8 2.3 1.1 0-1.2 2.9-.4 0 .2 1.5-1 2.3-.5-.2-2.4 2.1.1 1.8-.7.4-1.7 0-.2 1.8 0-.6-1.7 1.6-1.8 1.4.1.5-1.9-.4-2 2.5-.2-.7-2.1.7.4 1.2-2.6-.8-1.3 1.9-.1-1.3-3.3 1.8-1.2-.8-.6 0-2.7-8.6.6-10.4.3-10.2-.4" stroke="#ff8787" stroke-width="1.6"/>
<path d="M1394.1 713.6l2.7-2.3 2.9-3 2.6-3.3 3.3-2.9 2.8-2.4 0 3.3 0 4 .6 2.9-.5 3.5-3.5.1-3.4.6-4-.6-4 .3" stroke="#b197fc" stroke-width="1.6"/>
<path d="M1394 713.7l-2.9 3.1-2.6 2.6-3.4 3-3 2.9-2.3 3 0-3.6-.7-3.7-.1-3.6.2-3.2 4-.2 4-.6 3.2.2 3.3.6" stroke="#b197fc" stroke-width="1.6"/>
<path d="M1107 722.2l1.8-1.9.4-3.2-1.9.3 1.6-3.3-.1-1 2.5-1.3.2.7-.7-.9 1.8-2.9 1.4.2.6-2.1 1.9.5.9-.8 2.5 1 1.6-1.2.9.8.9.3 2.9-.1-.8-1.5 1.9.3 2.2 1.5.6.8.8 2.4 1.6-.9 1.5 1.7 0 2.3 1-1 2 1.8-1.7 1.3.1 1.2 1.4 2.2-.4 1.9-13.4-1.5-14.7 1.1" stroke="#ff8787" stroke-width="1.6"/>
<path d="M633 767l13.4 1.3 13.9-1.3.2 14.6-1.7 15.1-13.3.3-14-1.2 1.3-12.9-.7-14.4" stroke="#ffd43b" stroke-width="1.6"/>
<path d="M640.2 775.4l5.7 1.7 6.2-2.3-1.1 5.9-.3 8.7-5.7-1.1-4.1 1.3-2.9-7.8.5-4.7" stroke="#ffd43b" stroke-width="1.6"/>
<path d="M835 790.2l1.8-1.9.4-3.2-1.9.3 1.6-3.3-.1-1 2.5-1.3.2.7-.7-.9 1.8-2.9 1.4.2.6-2.1 1.9.5.9-.8 2.5 1 1.6-1.2.9.8.9.3 2.9-.1-.8-1.5 1.9.3 2.2 1.5.6.8.8 2.4 1.6-.9 1.5 1.7 0 2.3 1-1 2 1.8-1.7 1.3.1 1.2 1.4 2.2-.4 1.9-13.4-1.5-14.7 1.1" stroke="#ffa94d" stroke-width="1.6"/>
<path d="M508.4 631.4l7 6.8 9.6 7.8-8.8 8.5-6.8 6.1-7.5-6.6-6.9-8 6.7-7.5 8.1-6.7" stroke="#ff8787" stroke-width="1.6"/>
<path d="M508.4 638.9l5.4 4.2 2.6 3.2-3 5-4.1 2.9-5-4.7-2.9-3.8 2.8-3.4 4.5-5.1" stroke="#ff8787" stroke-width="1.6"/>
<path d="M836.6 156.5l-.6 7.9 1 10.3 0 9-.2 1 2.7 0 1 .2-.3-.3 2.1-1.8 2.3 1.1 0-1.2 2.9-.4 0 .2 1.5-1 2.3-.5-.2-2.4 2.1.1 1.8-.7.4-1.7 0-.2 1.8 0-.6-1.7 1.6-1.8 1.4.1.5-1.9-.4-2 2.5-.2-.7-2.1.7.4 1.2-2.6-.8-1.3 1.9-.1-1.3-3.3 1.8-1.2-.8-.6 0-2.7-8.6.6-10.4.3-10.2-.4" stroke="#ff8787" stroke-width="1.6"/>
<path d="M1313 563l13.4 1.3 13.9-1.3.2 14.6-1.7 15.1-13.3.3-14-1.2 1.3-12.9-.7-14.4" stroke="#b197fc" stroke-width="1.6"/>
<path d="M1320.2 571.4l5.7 1.7 6.2-2.3-1.1 5.9-.3 8.7-5.7-1.1-4.1 1.3-2.9-7.8.5-4.7" stroke="#b197fc" stroke-width="1.6"/>
<path d="M224.6 768.5l-.6 7.9 1 10.3 0 9-.2 1 2.7 0 1 .2-.3-.3 2.1-1.8 2.3 1.1 0-1.2 2.9-.4 0 .2 1.5-1 2.3-.5-.2-2.4 2.1.1 1.8-.7.4-1.7 0-.2 1.8 0-.6-1.7 1.6-1.8 1.4.1.5-1.9-.4-2 2.5-.2-.7-2.1.7.4 1.2-2.6-.8-1.3 1.9-.1-1.3-3.3 1.8-1.2-.8-.6 0-2.7-8.6.6-10.4.3-10.2-.4" stroke="#ff8787" stroke-width="1.6"/>
<path d="M1272.1 495l-1.7 2.2-1.1 1.3 1.3 1.7.9.3-3.5 2.2.9.6 1.1 1.3-1.5-.4-1.9 2.1-1.6.6.7-.4-.6 3.5-4.8-.8.2-1.1.9-.5-3.9 1.8 0 .5-1.7 0 .2-.5-3.8.5.2-2.5-.7.4.2-3.2-4.7-.6 2.7.2-4.5-2.3 1.6-.3-1-1.2-.4-1.9 1.4-.4-.3.7-3.4-1.4 14.8-1.6 12.6 2.2" stroke="#69db7c" stroke-width="1.6"/>
<path d="M1270.7 524.8l1.1-.8-.9-2.5-4.5 1.9.4-3.1-2.3-.2 1.5-.7-2.1 1.6-3.2-.4.3-3.9-.4.6-1.6-2.9.4.3-1.2-1.7 1.3.7.1-2.7-.9 0-.5-1 2.3-1.7-2.7-3.7 1.1-1.6 2 .1-.4-.9.4 1.1 1.4-3.6 1.8 0-.2.9 1.7-3.8 2.9 0-1.7-.4.8-.4 3 .9.6.5 1.5 10.9-.1 14.7" stroke="#69db7c" stroke-width="1.6"/>
<path d="M1245.3 522l.8.3-.3-2.7.6.9.8-1.6 1.4-1.8-1.2.7.1-3.8 2.6.5-1.5-.3 2.8-3.1-.2 1.5 2.8-1.5-.9 1.2.8-1.9 2.8-1.8.6 3.4 1.6-1.4 1.6-.6 2.5 2.3 0-1.2 1.1 0 1.5.6-.8 1.3 1.4.5 1.1 2.1 1.6 1.4-.4-1.1 2.7 1.1-.1 2 0 1.3 0 .6 1.6 4.1-15.4-3.3-12.7.3" stroke="#69db7c" stroke-width="1.6"/>
<path d="M1245 495.8l-.6.3 1.4-.6 1.7 2.4 3.5 1.2 1.6 0 .5.4 1.4.5 0 .8 1-.9.9 1.7.3 2.4-.3-.9 1.6 4.7-2-2 1.1 1.2.7 4 .3-1.6-1.9 2.9-.3 0 2.1 2.4-2.1.3 1.2 3.1-.9-1-3.2.4-1.3 1.1 2 3.2-3.4.2.7-1-4 1.1-.1-.6-1.3 1.5-.5-.6-1.8-11.3 2.1-15.6" stroke="#69db7c" stroke-width="1.6"/>
<path d="M1040.6 224.5l-.6 7.9 1 10.3 0 9-.2 1 2.7 0 1 .2-.3-.3 2.1-1.8 2.3 1.1 0-1.2 2.9-.4 0 .2 1.5-1 2.3-.5-.2-2.4 2.1.1 1.8-.7.4-1.7 0-.2 1.8 0-.6-1.7 1.6-1.8 1.4.1.5-1.9-.4-2 2.5-.2-.7-2.1.7.4 1.2-2.6-.8-1.3 1.9-.1-1.3-3.3 1.8-1.2-.8-.6 0-2.7-8.6.6-10.4.3-10.2-.4" stroke="#69db7c" stroke-width="1.6"/>
</g>
</svg>